<?xml version="1.0" encoding="UTF-8"?>
<svg xmlns="http://www.w3.org/2000/svg" width="986.66" height="1109.06" viewBox="0 0 986.66 1109.06">
  <g style="isolation: isolate;">
    <g id="Layer_1" data-name="Layer 1">
      <g>
        <g>
          <g>
            <path d="M189.52,731.2s323.95,98.58,610.05-7.62c-31.13-116.81-40.98-238.26-29.09-358.56l-534.54,26.56s-29.66,281.64-46.42,339.63Z" style="fill: #1c3759;"/>
            <path d="M500.68,774.33c-37.07,0-75.04-1.88-113.57-5.63-92.47-9-169.97-27.53-198.03-36.07l-1.42-.43.41-1.42c16.53-57.2,46.08-336.55,46.37-339.37l.13-1.28,1.28-.06,536.28-26.64-.17,1.73c-11.92,120.53-2.15,240.99,29.04,358.03l.35,1.32-1.28.47c-65.39,24.27-138.2,39.78-216.42,46.08-27.04,2.18-54.76,3.27-82.99,3.27ZM191.36,730.19c29.1,8.69,105.37,26.71,196.11,35.54,67.69,6.59,133.63,7.38,196,2.35,77.42-6.25,149.51-21.53,214.3-45.43-30.86-116.41-40.6-236.18-28.95-356.04l-531.52,26.41c-2.19,20.55-29.84,278.79-45.94,337.18Z" style="fill: #1c3759;"/>
          </g>
          <path d="M985.12,1009.08c.8,14.5-10.88,26.71-25.47,26.71H27.01c-14.59,0-26.26-12.2-25.47-26.71,1.42-25.91,4.86-51.29,10.26-75.96,23.43-108.77,83.3-204.71,165.89-274.04,18.13-15.3,37.32-29.27,57.48-41.83,11.14-6.9,22.55-13.44,34.31-19.45,27.06-14.06,55.71-25.64,85.42-34.4,1.24-.35,2.48-.8,3.71-1.06,11.23-3.27,22.55-6.1,34.13-8.49,8.4-1.86,16.98-3.45,25.56-4.78,24.49-3.8,49.52-5.75,74.99-5.75,5.22,0,10.35.09,15.56.27,19.1.62,37.94,2.3,56.51,5.13,9.37,1.33,18.66,3.01,27.86,5.04,12.29,2.48,24.49,5.48,36.43,9.02,13.35,3.89,26.53,8.4,39.44,13.35,21.05,8.13,41.3,17.69,60.84,28.47,7.25,3.98,14.41,8.22,21.49,12.65,59.78,37.23,111.24,86.84,150.59,145.29,48.19,71.36,78.17,155.9,83.12,246.54Z" style="fill: #93c6ed;"/>
          <g style="mix-blend-mode: multiply; opacity: .17;">
            <path d="M985.11,1009.07c.8,14.5-10.88,26.7-25.47,26.7H306.34c1.65-1.48,4.29-1.77,7.36-2.17,6.02-.8,281.97-33.2,450.35-42.39,0,0,41.48-5.4,105.93-36.26,13.22-6.33,29.91-14.8,39.79-32.89,7.87-14.41,8.75-31.48,8.49-47.84-.53-37.76-6.1-75.34-16.27-111.69,48.19,71.36,78.17,155.9,83.12,246.54Z" style="fill: #0079cf;"/>
          </g>
          <g>
            <path d="M608.38,776.96c.84-3.67,31.94,5.42,87.52,4.59,49.03-.73,75.67-8.55,76.46-5.22.96,4.03-36.45,22.84-81.05,23.27-45.61.44-83.88-18.49-82.93-22.64Z" style="fill: #009ccd;"/>
            <path d="M689.75,801.11c-42.24,0-77.43-16.23-82.04-21.96-.71-.88-.97-1.72-.79-2.52.65-2.83,4.64-2.35,17.85-.76,14.46,1.75,38.65,4.68,71.11,4.19,27.42-.41,48.19-3.09,60.6-4.69,12.81-1.65,16.68-2.15,17.34.62.19.78-.06,1.6-.73,2.46-5.26,6.73-41.61,22.28-81.77,22.66-.53,0-1.05,0-1.58,0ZM610.29,777.61c4.49,4.8,39.29,20.9,81.01,20.5,24.51-.24,45.23-6.11,55.41-9.6,13.85-4.74,21.65-9.42,23.69-11.49-2.16-.14-7.5.55-13.53,1.33-12.47,1.61-33.35,4.3-60.94,4.71-32.66.49-56.98-2.45-71.52-4.21-6.35-.77-11.96-1.45-14.12-1.24ZM608.38,776.96l1.46.33-1.46-.33Z" style="fill: #1c3759;"/>
          </g>
          <g>
            <path d="M721.39,951.95h-61.57c-28.13,0-50.94-22.8-50.94-50.94v-120.83c14.18,7.29,41.66,19.04,78.07,19.78,40.47.82,70.93-12.37,85.36-19.78v120.83c0,28.13-22.8,50.94-50.94,50.94Z" style="fill: #00b7f7;"/>
            <path d="M721.39,953.46h-61.57c-28.91,0-52.44-23.52-52.44-52.44v-123.29l2.19,1.12c23.9,12.29,50.67,19.07,77.42,19.61,36.94.75,66.42-10.25,84.65-19.61l2.19-1.12v123.29c0,28.91-23.52,52.44-52.44,52.44ZM610.39,782.63v118.39c0,27.26,22.18,49.44,49.44,49.44h61.57c27.26,0,49.44-22.18,49.44-49.44v-118.39c-18.66,9.26-47.77,19.56-83.89,18.84-26.39-.54-52.8-7.04-76.54-18.84Z" style="fill: #1c3759;"/>
          </g>
          <path d="M690.66,835.67h0c-.59,0-1.19,0-1.79-.01-2.58-.04-5.19-.13-7.75-.27-.83-.05-1.46-.76-1.41-1.58.05-.83.77-1.44,1.58-1.41,2.52.14,5.09.23,7.62.27.59,0,1.17.01,1.75.01.83,0,1.5.67,1.5,1.5,0,.83-.67,1.5-1.5,1.5ZM700.12,835.46c-.79,0-1.46-.62-1.5-1.43-.04-.83.6-1.53,1.42-1.57,3.11-.15,6.25-.39,9.36-.71.82-.08,1.56.51,1.65,1.34s-.52,1.56-1.34,1.65c-3.16.32-6.36.57-9.52.72-.03,0-.05,0-.08,0ZM671.77,834.61c-.05,0-.11,0-.17,0-3.15-.35-6.33-.78-9.46-1.29-.82-.13-1.37-.91-1.24-1.72s.9-1.38,1.72-1.24c3.08.5,6.21.93,9.3,1.27.82.09,1.42.83,1.33,1.66-.08.77-.73,1.34-1.49,1.34ZM718.94,833.53c-.73,0-1.36-.53-1.48-1.27-.13-.82.43-1.59,1.25-1.71,3.07-.48,6.18-1.05,9.23-1.69.81-.17,1.61.35,1.78,1.16.17.81-.35,1.61-1.16,1.78-3.11.65-6.27,1.23-9.39,1.72-.08.01-.16.02-.23.02ZM653.09,831.55c-.11,0-.21-.01-.32-.03-3.09-.67-6.21-1.44-9.27-2.28-.8-.22-1.27-1.04-1.05-1.84.22-.8,1.05-1.27,1.84-1.05,3.01.82,6.07,1.58,9.12,2.24.81.18,1.32.98,1.15,1.79-.15.7-.77,1.18-1.46,1.18ZM737.46,829.62c-.66,0-1.27-.44-1.45-1.11-.21-.8.26-1.62,1.06-1.83,3.01-.8,6.04-1.69,9-2.65.79-.25,1.63.18,1.89.96.25.79-.18,1.63-.97,1.89-3.01.97-6.09,1.88-9.16,2.7-.13.04-.26.05-.39.05ZM634.84,826.56c-.16,0-.32-.02-.47-.08-3.01-1-6.03-2.09-8.98-3.24-.77-.3-1.15-1.17-.85-1.94.3-.77,1.17-1.15,1.94-.85,2.89,1.13,5.87,2.21,8.83,3.19.79.26,1.21,1.11.95,1.9-.21.63-.79,1.03-1.42,1.03ZM755.47,823.8c-.6,0-1.17-.37-1.4-.96-.3-.77.09-1.64.86-1.94l1.18-.46c.77-.3,1.64.08,1.94.85.3.77-.08,1.64-.85,1.94l-1.2.46c-.18.07-.36.1-.54.1Z" style="fill: #1c3759;"/>
          <path d="M959.66,1037.28H27.01c-7.52,0-14.5-3-19.67-8.46-5.11-5.4-7.7-12.44-7.3-19.83,1.41-25.77,4.87-51.4,10.29-76.2,22.93-106.43,82.02-204.05,166.39-274.87,18.15-15.31,37.54-29.43,57.65-41.95,11.98-7.42,23.24-13.8,34.42-19.52,27.3-14.19,56.13-25.79,85.68-34.5.42-.12.82-.25,1.23-.37.82-.25,1.67-.52,2.54-.71,11.51-3.35,22.7-6.13,34.2-8.5,8.25-1.82,16.88-3.44,25.63-4.79,24.65-3.83,49.95-5.76,75.22-5.76,5.23,0,10.34.09,15.61.27,19.31.62,38.38,2.36,56.68,5.14,9.36,1.32,18.77,3.03,27.95,5.06,12.44,2.51,24.75,5.55,36.53,9.05,12.81,3.73,26.12,8.24,39.55,13.39,20.56,7.95,41.09,17.55,61.03,28.56,6.94,3.81,14,7.96,21.56,12.69,59.64,37.14,111.87,87.53,151.04,145.72,49.73,73.63,78.56,159.15,83.38,247.29h0c.41,7.39-2.19,14.43-7.3,19.83-5.17,5.46-12.15,8.46-19.67,8.46ZM493.29,544.83c-25.11,0-50.26,1.93-74.76,5.73-8.69,1.34-17.25,2.94-25.46,4.76-11.46,2.36-22.59,5.13-34.04,8.46-.03,0-.07.02-.1.03-.76.16-1.52.4-2.34.65-.43.13-.85.26-1.28.39-29.35,8.65-58,20.18-85.14,34.29-11.12,5.69-22.31,12.03-34.21,19.4-19.98,12.45-39.26,26.47-57.3,41.7-83.86,70.4-142.6,167.42-165.39,273.21-5.39,24.64-8.83,50.12-10.23,75.73-.36,6.55,1.94,12.81,6.48,17.6,4.59,4.85,10.8,7.52,17.49,7.52h932.65c6.68,0,12.9-2.67,17.49-7.52,4.54-4.8,6.84-11.05,6.48-17.6h0c-4.79-87.6-33.44-172.59-82.87-245.78-38.94-57.85-90.86-107.93-150.14-144.85-7.51-4.7-14.52-8.82-21.42-12.6-19.82-10.94-40.23-20.49-60.66-28.39-13.35-5.12-26.58-9.6-39.32-13.31-11.71-3.47-23.92-6.5-36.31-8.99-9.14-2.02-18.47-3.71-27.77-5.03-18.2-2.77-37.15-4.49-56.34-5.11-5.25-.18-10.32-.26-15.52-.26Z" style="fill: #1c3759;"/>
          <path d="M959.66,1037.28H27.01c-7.52,0-14.5-3-19.67-8.46-5.11-5.4-7.7-12.44-7.3-19.83,1.41-25.77,4.87-51.4,10.29-76.2,22.93-106.43,82.02-204.05,166.39-274.87,18.15-15.31,37.54-29.43,57.65-41.95,11.98-7.42,23.24-13.8,34.42-19.52,27.3-14.19,56.13-25.79,85.68-34.5.42-.12.82-.25,1.23-.37.82-.25,1.67-.52,2.54-.71,11.51-3.35,22.7-6.13,34.2-8.5,8.25-1.82,16.88-3.44,25.63-4.79,24.65-3.83,49.95-5.76,75.22-5.76,5.23,0,10.34.09,15.61.27,19.31.62,38.38,2.36,56.68,5.14,9.36,1.32,18.77,3.03,27.95,5.06,12.44,2.51,24.75,5.55,36.53,9.05,12.81,3.73,26.12,8.24,39.55,13.39,20.56,7.95,41.09,17.55,61.03,28.56,6.94,3.81,14,7.96,21.56,12.69,59.64,37.14,111.87,87.53,151.04,145.72,49.73,73.63,78.56,159.15,83.38,247.29h0c.41,7.39-2.19,14.43-7.3,19.83-5.17,5.46-12.15,8.46-19.67,8.46ZM493.29,544.83c-25.11,0-50.26,1.93-74.76,5.73-8.69,1.34-17.25,2.94-25.46,4.76-11.46,2.36-22.59,5.13-34.04,8.46-.03,0-.07.02-.1.03-.76.16-1.52.4-2.34.65-.43.13-.85.26-1.28.39-29.35,8.65-58,20.18-85.14,34.29-11.12,5.69-22.31,12.03-34.21,19.4-19.98,12.45-39.26,26.47-57.3,41.7-83.86,70.4-142.6,167.42-165.39,273.21-5.39,24.64-8.83,50.12-10.23,75.73-.36,6.55,1.94,12.81,6.48,17.6,4.59,4.85,10.8,7.52,17.49,7.52h932.65c6.68,0,12.9-2.67,17.49-7.52,4.54-4.8,6.84-11.05,6.48-17.6h0c-4.79-87.6-33.44-172.59-82.87-245.78-38.94-57.85-90.86-107.93-150.14-144.85-7.51-4.7-14.52-8.82-21.42-12.6-19.82-10.94-40.23-20.49-60.66-28.39-13.35-5.12-26.58-9.6-39.32-13.31-11.71-3.47-23.92-6.5-36.31-8.99-9.14-2.02-18.47-3.71-27.77-5.03-18.2-2.77-37.15-4.49-56.34-5.11-5.25-.18-10.32-.26-15.52-.26Z" style="fill: #1c3759;"/>
          <g>
            <g>
              <path d="M669.91,893.58l-16.76-10.34c72.71-108.69,78.01-223.65,21.09-281.25-11.78-11.97-33.84-29.03-73.33-37.74-.69-.75-1.29-1.57-1.8-2.44-1.07-1.9-1.71-4-1.88-6.15-.59-4.78-.88-8.96-1.03-11.83,51.95,9.47,79.51,31.95,92.53,45.1,63.41,64.01,60.22,189.45-18.82,304.66Z" style="fill: #0079cf;"/>
              <path d="M670.34,895.6l-19.3-11.91.87-1.29c35.1-52.47,55.47-107.47,58.91-159.05,3.31-49.68-10.06-92.41-37.64-120.32-17.78-18.07-42.2-30.63-72.59-37.33l-.46-.1-.32-.35c-.76-.83-1.43-1.74-1.99-2.71-1.19-2.12-1.89-4.4-2.08-6.78-.6-4.84-.89-9.13-1.03-11.88l-.1-1.89,1.86.34c39.08,7.12,70.48,22.44,93.33,45.52,31.46,31.76,47.25,79.45,44.44,134.26-2.9,56.8-24.72,116.38-63.09,172.3l-.81,1.18ZM655.27,882.78l14.22,8.77c37.55-55.12,58.9-113.73,61.76-169.58,2.76-53.96-12.72-100.84-43.58-132-22.04-22.27-52.26-37.18-89.86-44.33.17,2.6.44,6.03.91,9.82.17,2.01.74,3.88,1.7,5.6.37.63.8,1.24,1.29,1.82,30.74,6.86,55.5,19.65,73.6,38.04,28.19,28.53,41.86,72.08,38.5,122.62-3.44,51.68-23.68,106.71-58.54,159.22Z" style="fill: #1c3759;"/>
            </g>
            <g>
              <path d="M641.03,1105.61c-7.45.03-14.83-1.44-21.7-4.3-4.41-2.09-6.29-7.36-4.2-11.77,1.99-4.21,6.91-6.15,11.24-4.43,1.09.47,22.71,9.34,37.02-6.74,4.95-10.93,46.21-104.93,23.32-155.58-6.21-14.11-18.61-24.54-33.57-28.24-85.93-24.77-132.52,129.99-133.05,131.55-.04.15-.09.3-.15.44-3.53,10.1,15.58,26.83,29.63,34.93,4.23,2.44,5.68,7.85,3.24,12.07-2.44,4.23-7.85,5.68-12.07,3.24-4.86-2.94-47.12-28.07-37.52-55.95,8.95-28.49,21.43-55.75,37.17-81.13,33.81-53.01,74.51-74.65,117.65-62.2,19.95,5.12,36.45,19.1,44.79,37.93,27.56,61.02-21.82,166.98-23.94,171.46-.31.67-.71,1.29-1.18,1.86-8.99,10.95-22.5,17.17-36.66,16.87h0Z" style="fill: #0079cf;"/>
              <path d="M642.01,1107.12c-.33,0-.66,0-.99,0-7.67-.01-15.18-1.46-22.27-4.42-5.22-2.47-7.42-8.64-4.98-13.79,2.33-4.91,8.1-7.18,13.15-5.18.27.12,5.79,2.47,13.05,2.73,9.05.34,16.5-2.67,22.14-8.91,5.19-11.51,45.69-104.41,23.23-154.14-5.99-13.6-18.16-23.84-32.57-27.4-80.51-23.2-126.22,114.49-131.17,130.26l-.07.24c-.05.2-.11.39-.19.58-1.33,3.92,1.47,9.82,7.91,16.64,5.49,5.81,13.56,12.12,21.06,16.44,2.39,1.38,4.1,3.61,4.82,6.28.72,2.67.35,5.45-1.03,7.85-1.38,2.39-3.61,4.1-6.28,4.82-2.67.72-5.45.35-7.85-1.03l-.23-.14c-14.38-8.7-46.86-31.72-37.95-57.6,8.96-28.55,21.52-55.96,37.31-81.44,34.29-53.76,75.55-75.49,119.34-62.85,20.48,5.26,37.17,19.39,45.75,38.76,27.91,61.79-21.83,168.21-23.96,172.71-.36.78-.83,1.51-1.38,2.17-9.12,11.11-22.5,17.43-36.84,17.43ZM641.05,1104.12h.02c13.79.32,26.72-5.67,35.48-16.33.39-.47.72-.99.98-1.54,2.11-4.45,51.29-109.65,23.93-170.2-8.21-18.54-24.17-32.06-43.8-37.09-42.42-12.25-82.52,9.04-116.01,61.55-15.65,25.24-28.1,52.42-37,80.78-8.44,24.52,25.92,47.6,36.66,54.1l.21.13c1.67.96,3.65,1.22,5.54.71,1.89-.51,3.48-1.72,4.46-3.42.98-1.7,1.24-3.68.73-5.57-.51-1.89-1.72-3.48-3.42-4.46-11.71-6.75-34.53-24.61-30.29-36.72l.04-.11c.03-.06.05-.12.06-.19l.12-.38c5.04-16.06,51.62-156.24,134.81-132.26,15.25,3.77,28.18,14.65,34.53,29.08,23.14,51.23-18.51,146.15-23.33,156.81l-.09.21-.15.17c-15.17,17.04-37.78,7.54-38.73,7.12-3.54-1.4-7.64.21-9.29,3.7-1.73,3.65-.17,8.04,3.49,9.77,6.6,2.75,13.65,4.16,20.87,4.16h.21Z" style="fill: #1c3759;"/>
            </g>
            <g>
              <circle cx="547.5" cy="1067.95" r="17.46" style="fill: #ffac00;"/>
              <path d="M547.5,1086.91c-10.46,0-18.96-8.51-18.96-18.96s8.51-18.96,18.96-18.96,18.96,8.51,18.96,18.96-8.51,18.96-18.96,18.96ZM547.5,1051.99c-8.8,0-15.96,7.16-15.96,15.96s7.16,15.96,15.96,15.96,15.96-7.16,15.96-15.96-7.16-15.96-15.96-15.96Z" style="fill: #1c3759;"/>
            </g>
            <g>
              <circle cx="616.77" cy="1089.56" r="17.46" style="fill: #ffac00;"/>
              <path d="M616.77,1108.53c-10.46,0-18.96-8.51-18.96-18.96s8.51-18.96,18.96-18.96,18.96,8.51,18.96,18.96-8.51,18.96-18.96,18.96ZM616.77,1073.6c-8.8,0-15.96,7.16-15.96,15.96s7.16,15.96,15.96,15.96,15.96-7.16,15.96-15.96-7.16-15.96-15.96-15.96Z" style="fill: #1c3759;"/>
            </g>
          </g>
          <path d="M670.34,895.6l-19.3-11.91.87-1.29c35.1-52.47,55.47-107.47,58.91-159.05,3.31-49.68-10.06-92.41-37.64-120.32-17.78-18.07-42.2-30.63-72.59-37.33l-.46-.1-.32-.35c-.76-.83-1.43-1.74-1.99-2.71-1.19-2.12-1.89-4.4-2.08-6.78-.6-4.84-.89-9.13-1.03-11.88l-.1-1.89,1.86.34c39.08,7.12,70.48,22.44,93.33,45.52,31.46,31.76,47.25,79.45,44.44,134.26-2.9,56.8-24.72,116.38-63.09,172.3l-.81,1.18ZM655.27,882.78l14.22,8.77c37.55-55.12,58.9-113.73,61.76-169.58,2.76-53.96-12.72-100.84-43.58-132-22.04-22.27-52.26-37.18-89.86-44.33.17,2.6.44,6.03.91,9.82.17,2.01.74,3.88,1.7,5.6.37.63.8,1.24,1.29,1.82,30.74,6.86,55.5,19.65,73.6,38.04,28.19,28.53,41.86,72.08,38.5,122.62-3.44,51.68-23.68,106.71-58.54,159.22Z" style="fill: #1c3759;"/>
          <g>
            <path d="M641.03,1105.61c-7.45.03-14.83-1.44-21.7-4.3-4.41-2.09-6.29-7.36-4.2-11.77,1.99-4.21,6.91-6.15,11.24-4.43.14.06.59.25,1.32.51,16.14,5.71,33.95-2.43,40.43-18.29,11.74-28.74,37.84-101.96,18.6-144.55-6.21-14.11-18.61-24.54-33.57-28.24-85.93-24.77-132.52,129.99-133.05,131.55-.04.15-.09.3-.15.44-3.51,10.03,15.32,26.6,29.34,34.76,3.95,2.3,5.82,7.21,3.96,11.39-2.17,4.88-8.01,6.69-12.51,4.09-4.86-2.94-47.12-28.07-37.52-55.95,8.95-28.49,21.43-55.75,37.17-81.13,33.81-53.01,74.51-74.65,117.65-62.2,19.95,5.12,36.45,19.1,44.79,37.93,27.56,61.02-21.82,166.98-23.94,171.46-.31.67-.71,1.29-1.18,1.86-8.99,10.95-22.5,17.17-36.66,16.87h0Z" style="fill: #0079cf;"/>
            <path d="M642.01,1107.12c-.33,0-.66,0-.99,0-7.67-.01-15.18-1.46-22.27-4.42-5.22-2.47-7.42-8.64-4.98-13.79,2.33-4.91,8.1-7.18,13.15-5.18.17.07.59.25,1.26.49,15.39,5.45,32.32-2.21,38.54-17.44,5.35-13.08,15.16-39.16,20.84-66.82,6.71-32.69,5.96-58.44-2.21-76.54-5.99-13.6-18.16-23.84-32.57-27.4-80.51-23.2-126.22,114.49-131.17,130.26l-.07.24c-.05.2-.11.39-.19.58-3.01,8.83,14.71,24.79,28.7,32.92,4.75,2.77,6.72,8.48,4.57,13.3-1.2,2.69-3.48,4.75-6.26,5.66-2.78.9-5.83.59-8.37-.88l-.23-.14c-14.38-8.7-46.86-31.72-37.95-57.6,8.96-28.55,21.52-55.96,37.31-81.44,34.29-53.76,75.55-75.49,119.34-62.85,20.48,5.26,37.17,19.39,45.75,38.76,27.91,61.79-21.83,168.21-23.96,172.71-.36.78-.83,1.51-1.38,2.17-9.12,11.11-22.5,17.43-36.84,17.43ZM641.05,1104.12h.02c13.79.32,26.72-5.67,35.48-16.33.39-.47.72-.99.98-1.54,2.11-4.45,51.29-109.65,23.93-170.2-8.21-18.54-24.17-32.06-43.8-37.09-42.42-12.25-82.52,9.04-116.01,61.55-15.65,25.24-28.1,52.42-37,80.78-8.44,24.52,25.92,47.6,36.66,54.1l.21.13c1.77,1.02,3.94,1.25,5.91.61,2-.65,3.58-2.08,4.45-4.02,1.5-3.36.03-7.52-3.34-9.48-14.76-8.59-33.83-25.61-30-36.55l.04-.11c.03-.06.05-.12.06-.19l.12-.38c5.04-16.06,51.62-156.24,134.81-132.26,15.25,3.77,28.18,14.65,34.53,29.08,19.41,42.96-6.53,116.22-18.58,145.72-6.83,16.71-25.41,25.12-42.31,19.13-.77-.27-1.26-.48-1.41-.54-3.54-1.41-7.64.21-9.29,3.7-1.73,3.65-.17,8.04,3.49,9.77,6.6,2.75,13.65,4.16,20.87,4.16h.21Z" style="fill: #1c3759;"/>
          </g>
          <g style="mix-blend-mode: multiply; opacity: .24;">
            <path d="M579.52,638.98c-2.36,11.33-5.14,24-15.09,37-1.59,2.08-9.26,12.27-23.56,20.18-19.67,10.88-43.36,15.19-65.13,9.59-21.77-5.6-41.09-21.71-48.42-42.96-1.51,3.05,1.35,6.39,4.04,8.48,19.7,15.35,44.75,23.67,69.72,23.16,6.42-.13,12.1-.97,19.33-3.55,23.73-8.46,34.6-29.08,36.63-33.14,1.73-3.44,5.3-10.72,6.53-20.73,1.2-9.77,1.63-33.97,0-40.56-.12-.48-.54-2.03.23-3.38.84-1.49,2.74-2.04,4.28-2.25,1.11-.04,2.66-.2,4.39-.8,3.21-1.11,3.97-2.65,4.85-2.58,3.31.28,7.97,23.89,2.22,51.53Z" style="fill: #0079cf;"/>
          </g>
          <g style="mix-blend-mode: multiply; opacity: .24;">
            <circle cx="416.2" cy="929.45" r="63.66" style="fill: #0079cf;"/>
          </g>
          <g>
            <g>
              <g>
                <path d="M427.96,900.09l-20.72-3.83c8.81-47.76,4.7-88.65-12.2-121.5-5.48-10.48-12.22-20.25-20.07-29.09-9.33-11.08-18.08-21.56-23.74-42.35-4.6-16.8-14.44-94.28,36.47-127.32,24.55-15.93,52.15-14.38,66.46-12.26-.77,4.44-1.81,8.82-3.11,13.13-.87,2.83-1.84,5.48-2.8,7.97-26.95-3.76-43.22,5.2-48.94,8.84-40.45,25.76-31.33,90.58-27.63,104.11,4.48,16.34,11.14,24.3,19.57,34.23,8.87,10.03,16.49,21.11,22.68,32.98,18.95,37.24,23.71,82.7,14.03,135.1h0Z" style="fill: #0079cf;"/>
                <path d="M429.17,901.83l-23.67-4.37.27-1.47c8.74-47.43,4.69-87.98-12.06-120.55-5.41-10.35-12.09-20.04-19.86-28.78-9.41-11.16-18.27-21.68-24.07-42.95-5.15-18.81-13.97-95.83,37.1-128.97,23.3-15.12,49.57-15.13,67.5-12.48l1.52.22-.26,1.52c-.78,4.48-1.84,8.96-3.15,13.31-.77,2.49-1.67,5.05-2.84,8.07l-.43,1.11-1.18-.17c-18.18-2.54-35.2.52-47.93,8.62-20.97,13.36-27.72,37.57-29.69,55.54-2.38,21.7,1.14,41.22,2.7,46.91,4.44,16.2,10.99,23.9,19.27,33.65,8.92,10.09,16.63,21.29,22.87,33.26,19.14,37.62,23.91,83.39,14.18,136.07l-.27,1.47ZM408.98,895.06l17.77,3.28c9.25-51.39,4.48-96.02-14.16-132.67-6.12-11.74-13.69-22.74-22.47-32.67-8.21-9.66-15.27-17.98-19.89-34.82-1.6-5.84-5.22-25.86-2.79-48.03,2.93-26.7,13.67-46.67,31.06-57.74,9.28-5.9,25.23-12.23,48.77-9.21.94-2.48,1.69-4.66,2.34-6.76,1.13-3.74,2.06-7.57,2.79-11.42-17.36-2.35-42.03-1.94-63.89,12.25-14.67,9.52-33.24,29.17-38.38,68.69-3.45,26.54.66,50.13,2.54,56.98,5.62,20.63,14.28,30.9,23.44,41.78,7.9,8.9,14.72,18.79,20.25,29.37,16.88,32.83,21.12,73.53,12.61,120.99Z" style="fill: #1c3759;"/>
              </g>
              <g>
                <circle cx="408.83" cy="926.29" r="57.1" style="fill: #ff5b91;"/>
                <path d="M408.83,984.88c-32.31,0-58.6-26.29-58.6-58.6s26.29-58.6,58.6-58.6,58.6,26.29,58.6,58.6-26.29,58.6-58.6,58.6ZM408.83,870.69c-30.66,0-55.6,24.94-55.6,55.6s24.94,55.6,55.6,55.6,55.6-24.94,55.6-55.6-24.94-55.6-55.6-55.6Z" style="fill: #1c3759;"/>
              </g>
              <g>
                <circle cx="408.83" cy="926.29" r="41.57" style="fill: #ffac00;"/>
                <path d="M408.83,969.35c-23.75,0-43.07-19.32-43.07-43.07s19.32-43.07,43.07-43.07,43.07,19.32,43.07,43.07-19.32,43.07-43.07,43.07ZM408.83,886.22c-22.09,0-40.07,17.97-40.07,40.07s17.98,40.07,40.07,40.07,40.07-17.97,40.07-40.07-17.98-40.07-40.07-40.07Z" style="fill: #1c3759;"/>
              </g>
            </g>
            <circle cx="369.53" cy="928.26" r="8.6" style="fill: #fff;"/>
          </g>
          <g>
            <g>
              <g>
                <path d="M564.65,1067.83c0,2.57-.55,5.04-1.57,7.23-2.75,6.02-8.82,10.22-15.9,10.22s-13.18-4.22-15.92-10.28c-.98-2.18-1.53-4.62-1.53-7.17,0-9.66,7.82-17.45,17.45-17.45s17.47,7.8,17.47,17.45Z" style="fill: #ffac00;"/>
                <path d="M547.18,1086.79c-7.43,0-14.22-4.38-17.29-11.16-1.09-2.41-1.67-5.11-1.67-7.79,0-10.45,8.5-18.96,18.96-18.96s18.97,8.5,18.97,18.96c0,2.78-.58,5.42-1.71,7.86-3.07,6.73-9.85,11.09-17.26,11.09ZM547.18,1051.88c-8.8,0-15.96,7.16-15.96,15.96,0,2.26.48,4.53,1.4,6.56,2.59,5.71,8.3,9.4,14.55,9.4s11.95-3.67,14.54-9.34c.95-2.05,1.44-4.27,1.44-6.61,0-8.8-7.17-15.96-15.97-15.96Z" style="fill: #1c3759;"/>
              </g>
              <g style="mix-blend-mode: multiply; opacity: .17;">
                <path d="M563.08,1075.06c-2.75,6.02-8.82,10.22-15.9,10.22s-13.18-4.22-15.92-10.28c-.06-1.12.02-2.23.19-3.33,3.48,1.67,7.27,2.69,11.11,2.99,1.99.15,4.05.09,5.89-.7,3.69-1.61,5.55-6.02,5.38-10.07-.15-3.65-2.04-6.97-2.71-10.3,4.66,2.16,9.48,6.27,11.55,11.07,1.4,3.28,1.46,6.99.42,10.39Z" style="fill: #ff6a07;"/>
              </g>
              <path d="M547.18,1086.79c-7.43,0-14.22-4.38-17.29-11.16-1.09-2.41-1.67-5.11-1.67-7.79,0-10.45,8.5-18.96,18.96-18.96s18.97,8.5,18.97,18.96c0,2.78-.58,5.42-1.71,7.86-3.07,6.73-9.85,11.09-17.26,11.09ZM547.18,1051.88c-8.8,0-15.96,7.16-15.96,15.96,0,2.26.48,4.53,1.4,6.56,2.59,5.71,8.3,9.4,14.55,9.4s11.95-3.67,14.54-9.34c.95-2.05,1.44-4.27,1.44-6.61,0-8.8-7.17-15.96-15.97-15.96Z" style="fill: #1c3759;"/>
            </g>
            <circle cx="543.63" cy="1062.56" r="2.4" style="fill: #fff;"/>
          </g>
          <g>
            <g>
              <g>
                <path d="M634.22,1090.1c0,2.57-.55,5.04-1.57,7.23-2.75,6.02-8.82,10.22-15.9,10.22s-13.18-4.22-15.92-10.28c-.98-2.18-1.53-4.62-1.53-7.17,0-9.66,7.82-17.45,17.45-17.45s17.47,7.8,17.47,17.45Z" style="fill: #ffac00;"/>
                <path d="M616.75,1109.06c-7.43,0-14.22-4.38-17.29-11.16-1.09-2.41-1.67-5.11-1.67-7.79,0-10.45,8.5-18.95,18.95-18.95s18.97,8.5,18.97,18.95c0,2.78-.58,5.42-1.71,7.87-3.07,6.73-9.85,11.09-17.26,11.09ZM616.75,1074.15c-8.8,0-15.95,7.16-15.95,15.95,0,2.26.48,4.53,1.4,6.56,2.59,5.71,8.3,9.4,14.55,9.4s11.95-3.67,14.54-9.34c.95-2.05,1.44-4.27,1.44-6.61,0-8.8-7.17-15.95-15.97-15.95Z" style="fill: #1c3759;"/>
              </g>
              <g style="mix-blend-mode: multiply; opacity: .17;">
                <path d="M632.65,1097.33c-2.75,6.02-8.82,10.22-15.9,10.22s-13.18-4.22-15.92-10.28c-.06-1.12.02-2.23.19-3.33,3.48,1.67,7.27,2.69,11.11,2.99,1.99.15,4.05.09,5.89-.7,3.69-1.61,5.55-6.02,5.38-10.07-.15-3.65-2.04-6.97-2.71-10.3,4.66,2.16,9.48,6.27,11.55,11.07,1.4,3.28,1.46,6.99.42,10.39Z" style="fill: #ff6a07;"/>
              </g>
              <path d="M616.75,1109.06c-7.43,0-14.22-4.38-17.29-11.16-1.09-2.41-1.67-5.11-1.67-7.79,0-10.45,8.5-18.95,18.95-18.95s18.97,8.5,18.97,18.95c0,2.78-.58,5.42-1.71,7.87-3.07,6.73-9.85,11.09-17.26,11.09ZM616.75,1074.15c-8.8,0-15.95,7.16-15.95,15.95,0,2.26.48,4.53,1.4,6.56,2.59,5.71,8.3,9.4,14.55,9.4s11.95-3.67,14.54-9.34c.95-2.05,1.44-4.27,1.44-6.61,0-8.8-7.17-15.95-15.97-15.95Z" style="fill: #1c3759;"/>
            </g>
            <circle cx="613.2" cy="1084.82" r="2.4" style="fill: #fff;"/>
          </g>
          <g>
            <path d="M693.48,385.39c0,34.04,24.86,62.26,57.41,67.49,3.56.58,7.22.88,10.95.88,37.76,0,68.36-30.6,68.36-68.36s-30.6-68.36-68.36-68.36c-3.74,0-7.4.3-10.95.88-32.55,5.24-57.41,33.46-57.41,67.49Z" style="fill: #ffbfaf;"/>
            <path d="M761.84,455.25c-3.76,0-7.53-.3-11.19-.9-16.2-2.6-31.05-10.93-41.81-23.45-10.87-12.65-16.86-28.82-16.86-45.52s5.99-32.87,16.86-45.52c10.76-12.51,25.61-20.84,41.81-23.45,3.67-.59,7.44-.9,11.19-.9,38.52,0,69.86,31.34,69.86,69.86s-31.34,69.86-69.86,69.86ZM761.84,318.52c-3.6,0-7.2.29-10.71.86-15.51,2.5-29.72,10.47-40.01,22.45-10.4,12.1-16.14,27.57-16.14,43.56s5.73,31.46,16.14,43.57c10.3,11.98,24.51,19.95,40.01,22.44,3.51.57,7.11.86,10.72.86,36.87,0,66.86-30,66.86-66.86s-30-66.86-66.86-66.86Z" style="fill: #1c3759;"/>
          </g>
          <g style="mix-blend-mode: multiply; opacity: .4;">
            <path d="M761.84,360.96c-1.08,0-2.11.18-3.15.32-1.4-14.85-3.95-29.37-7.8-43.38-32.55,5.24-57.41,33.46-57.41,67.49s24.86,62.25,57.41,67.49c3.86-14,6.4-28.52,7.8-43.37,1.04.14,2.07.32,3.15.32,13.49,0,24.44-10.94,24.44-24.44s-10.94-24.42-24.44-24.42Z" style="fill: #ffbfaf;"/>
          </g>
          <g>
            <path d="M246.27,317.9c-3.56-.58-7.22-.88-10.95-.88-37.76,0-68.36,30.6-68.36,68.36,0,37.76,30.6,68.36,68.36,68.36,3.74,0,7.4-.3,10.95-.88,32.55-5.23,57.41-33.45,57.41-67.49,0-34.03-24.86-62.24-57.41-67.49Z" style="fill: #ffbfaf;"/>
            <path d="M235.31,455.25c-38.52,0-69.86-31.34-69.86-69.86s31.34-69.86,69.86-69.86c3.76,0,7.52.3,11.19.9,16.2,2.61,31.05,10.94,41.81,23.45,10.87,12.65,16.86,28.81,16.86,45.52s-5.99,32.88-16.86,45.52c-10.76,12.51-25.61,20.84-41.81,23.45-3.66.59-7.43.9-11.19.9ZM235.31,318.52c-36.87,0-66.86,30-66.86,66.86s30,66.86,66.86,66.86c3.6,0,7.21-.29,10.71-.86,15.51-2.49,29.72-10.46,40.01-22.44,10.41-12.1,16.14-27.58,16.14-43.57s-5.73-31.46-16.14-43.56c-10.3-11.98-24.51-19.95-40.01-22.45,0,0,0,0,0,0-3.51-.57-7.12-.86-10.71-.86Z" style="fill: #1c3759;"/>
          </g>
          <g style="mix-blend-mode: multiply; opacity: .4;">
            <path d="M232.65,315.64c-3.74,13.59-8.96,32.62-1.41,45.45-13.17.73-27.72,12.37-27.72,25.43s14.38,22.46,27.49,23.16c1.37,15.19,3.96,30.03,7.9,44.33,32.55-5.23,57.41-33.45,57.41-67.49s-31.12-65.64-63.67-70.89Z" style="fill: #ffbfaf;"/>
          </g>
          <g>
            <path d="M565.35,533.24v90.2c0,32.72-21.31,60.4-50.85,69.86-.35.18-.62.27-.97.35-6.81,2.12-14.15,3.36-21.75,3.36-40.59,0-73.48-32.98-73.48-73.57v-90.2h147.06Z" style="fill: #ffbfaf;"/>
            <path d="M491.77,698.5c-41.35,0-74.98-33.68-74.98-75.07v-90.2c0-.83.67-1.5,1.5-1.5h147.06c.83,0,1.5.67,1.5,1.5v90.2c0,32.66-20.81,61.28-51.79,71.25-.44.21-.79.32-1.17.41-7.21,2.25-14.68,3.4-22.12,3.4ZM419.79,534.74v88.7c0,39.74,32.29,72.07,71.98,72.07,7.13,0,14.3-1.11,21.31-3.29.37-.09.52-.15.75-.26.07-.03.14-.06.21-.09,29.79-9.54,49.8-37.04,49.8-68.43v-88.7h-144.06Z" style="fill: #1c3759;"/>
          </g>
          <g style="mix-blend-mode: multiply; opacity: .4;">
            <path d="M565.35,592.57v30.86c0,32.72-21.31,60.4-50.85,69.86-1.33-16.45-3.8-35.46-11.94-50.05-10.35-18.66-33.25-36.52-84.27-44.13v-6.54c23.26,7.07,48.02,10.88,73.57,10.88,13.88,0,27.5-1.15,40.77-3.36,11.14-1.77,22.11-4.33,32.72-7.52Z" style="fill: #ffbfaf;"/>
          </g>
          <path d="M491.86,604.95c-25.24,0-50.14-3.68-74.01-10.94-4.14-1.17-8.56-2.64-13.88-4.63-48.75-17.79-90.52-49.65-120.76-92.15-30.91-43.44-47.26-94.68-47.26-148.19,0-69.7,24.39-168.25,65.21-212.54,41.47-45.02,101.33-44.28,164.7-43.5,8.48.1,17.25.21,26,.21,14.07,0,27.84,1.1,40.93,3.28.17.01.31.04.41.07.08,0,.21.02.29.04,6.85,1.16,13.02,2.41,18.85,3.82.71.18,1.4.35,2.18.52,5.56,1.39,11.38,3.11,17.83,5.26.44.16.84.29,1.23.41.58.19,1.15.37,1.68.59,5.94,2.01,11.48,4.13,16.84,6.47.61.28,1.2.51,1.82.76.38.15.77.31,1.17.47,4.87,2.16,9.96,4.64,16.04,7.84.7.31,1.42.72,2.11,1.1l.74.41c5.4,2.93,10.58,5.98,15.39,9.08l2.41,1.6c4.7,3,9.59,6.43,14.93,10.49.62.44,1.17.9,1.7,1.34,5.12,3.95,9.87,7.92,14.51,12.12.34.24.57.47.75.65,4.66,4.22,9.27,8.74,13.65,13.38l.77.76c3.48,3.57,6.82,7.36,9.93,11.27.84.92,1.76,1.93,2.59,3.04.19.22.42.53.66.83.21.27.41.54.62.79,4.03,5.06,7.61,9.89,10.96,14.79.37.59.89,1.39,1.47,2.16,3.49,5.14,6.69,10.32,9.57,15.47.25.41.49.84.74,1.26.24.41.48.83.74,1.26,3.07,5.49,5.78,10.76,8.3,16.14.36.9.7,1.75,1.1,2.47.02.04.04.08.06.12,2.9,6.53,5.13,11.95,7.02,17.07.15.44.28.81.41,1.18.13.38.27.76.4,1.17,2.49,6.95,4.36,12.75,5.86,18.21,0,.03.02.07.02.1.08.41.15.75.28,1.07.02.06.04.12.06.18,1.84,7.06,3.29,13.45,4.44,19.55,0,.03,0,.06.01.09.03.11.07.26.09.45,1.12,5.96,2.05,12.51,2.83,20.02,0,.05,0,.1,0,.16,0,.06,0,.3.13.79.03.12.04.24.04.37,0,.22,0,.34.04.52.02.07.03.15.04.22.27,2.75.45,5.62.62,8.4l.27,3.84c.18,4.17.27,8.21.27,12.4,0,56.09-17.81,109.34-51.49,153.97-32.58,43.18-78.9,75.49-130.41,91-10.97,3.29-22.04,5.84-32.92,7.56-13.44,2.24-27.24,3.38-41,3.38ZM440.92,95.8c-22.98,0-44.85.81-65.22,4.69-30.84,5.87-53.82,17.96-72.32,38.04-31.67,34.35-64.42,122.48-64.42,210.5,0,52.88,16.15,103.52,46.7,146.45,29.89,42,71.16,73.49,119.36,91.07,5.26,1.96,9.6,3.41,13.69,4.56,23.61,7.18,48.22,10.82,73.16,10.82,13.59,0,27.23-1.12,40.52-3.34,10.75-1.71,21.69-4.22,32.53-7.47,50.91-15.32,96.68-47.26,128.88-89.93,33.29-44.11,50.89-96.73,50.89-152.17,0-4.15-.09-8.15-.26-12.23l-.26-3.76c-.17-2.78-.35-5.59-.61-8.26-.08-.38-.1-.69-.1-.94-.11-.47-.17-.89-.18-1.24-.77-7.43-1.69-13.91-2.8-19.79,0-.03-.01-.06-.01-.09-.03-.11-.07-.26-.09-.45-1.13-5.98-2.56-12.26-4.36-19.18-.19-.51-.3-1-.38-1.44-1.48-5.37-3.32-11.08-5.79-17.97-.14-.42-.27-.78-.4-1.15-.14-.39-.27-.77-.41-1.18-1.85-5-4.05-10.35-6.91-16.78-.47-.87-.84-1.79-1.2-2.68-2.45-5.24-5.13-10.44-8.14-15.83-.25-.41-.49-.84-.74-1.26-.24-.41-.48-.83-.74-1.26-2.86-5.11-6.02-10.22-9.42-15.23-.6-.79-1.17-1.67-1.53-2.26-3.28-4.79-6.82-9.56-10.78-14.54-.21-.25-.44-.55-.67-.85-.21-.27-.42-.55-.63-.8-.8-1.06-1.62-1.97-2.5-2.94-.02-.02-.06-.07-.09-.1-3.05-3.83-6.32-7.54-9.72-11.03l-.78-.78c-4.35-4.62-8.91-9.08-13.57-13.3-.21-.21-.31-.3-.44-.39-.06-.04-.12-.09-.17-.14-4.6-4.17-9.32-8.11-14.41-12.04-.59-.49-1.07-.89-1.63-1.29-5.31-4.03-10.14-7.42-14.79-10.39l-2.41-1.61c-4.73-3.04-9.84-6.05-15.18-8.95l-.77-.42c-.67-.38-1.31-.73-1.97-1.03-6.1-3.2-11.12-5.66-15.9-7.78-.35-.15-.73-.3-1.09-.44-.66-.26-1.29-.51-1.93-.8-5.27-2.29-10.72-4.39-16.66-6.4-.55-.22-1.06-.38-1.57-.55-.42-.14-.86-.28-1.29-.44-6.34-2.12-12.09-3.81-17.54-5.17-.77-.17-1.49-.35-2.21-.53-5.73-1.39-11.79-2.62-18.53-3.76-.24-.01-.43-.06-.55-.08,0,0,.04,0,.08,0-.08,0-.17,0-.25-.02-12.95-2.16-26.58-3.25-40.52-3.25-8.76,0-17.54-.11-26.03-.21-8.43-.1-16.74-.21-24.91-.21ZM740.44,302.53h0s0,0,0,0ZM743.35,302.08h0s0,0,0,0Z" style="fill: #1c3759;"/>
          <g>
            <path d="M746.18,349.04c0,114.96-76.22,212.05-180.84,243.53-10.61,3.18-21.58,5.75-32.72,7.52-13.26,2.21-26.88,3.36-40.77,3.36-25.56,0-50.32-3.8-73.57-10.88-4.69-1.33-9.28-2.92-13.79-4.6-97.45-35.55-167.04-129.1-167.04-238.93,0-66.5,23.08-166.24,64.82-211.52,46.51-50.49,115.49-42.8,189.59-42.8,13.88,0,27.5,1.06,40.77,3.27.18,0,.35.09.62.09,6.28,1.06,12.56,2.3,18.75,3.8.71.18,1.41.35,2.21.53,6.01,1.5,11.85,3.27,17.69,5.22.97.35,1.95.62,2.83.97,5.75,1.95,11.32,4.07,16.8,6.46.97.44,1.95.8,3.01,1.24,5.39,2.39,10.7,5.04,15.92,7.78.97.44,1.86.97,2.83,1.5,5.22,2.83,10.35,5.84,15.3,9.02.8.53,1.59,1.06,2.39,1.59,5.13,3.27,10.08,6.81,14.86,10.43.62.44,1.15.88,1.68,1.33,5.04,3.89,9.82,7.87,14.5,12.12.27.18.44.35.62.53,4.69,4.24,9.28,8.75,13.62,13.35.27.26.53.53.8.8,3.45,3.54,6.72,7.25,9.82,11.14.88.97,1.77,1.95,2.56,3.01.44.53.88,1.15,1.33,1.68,3.8,4.78,7.43,9.64,10.88,14.68.44.71.97,1.5,1.5,2.21,3.36,4.95,6.54,10.08,9.46,15.3.53.88.97,1.68,1.5,2.56,2.92,5.22,5.66,10.52,8.22,16.01.35.88.71,1.77,1.15,2.56,2.48,5.57,4.86,11.23,6.99,16.98.27.8.53,1.5.8,2.3,2.12,5.93,4.16,12.03,5.84,18.13.09.44.18.88.35,1.33,1.68,6.46,3.18,12.91,4.42,19.45,0,.18.09.27.09.44,1.24,6.54,2.12,13.18,2.83,19.98,0,.35.09.8.18,1.15,0,.26,0,.53.09.88.27,2.74.44,5.57.62,8.4.09,1.24.18,2.56.27,3.8.18,4.07.27,8.13.27,12.29Z" style="fill: #ffbfaf;"/>
            <path d="M491.86,604.95c-25.24,0-50.14-3.68-74.01-10.94-4.14-1.17-8.56-2.64-13.88-4.63-48.75-17.79-90.52-49.65-120.76-92.15-30.91-43.44-47.26-94.68-47.26-148.19,0-69.7,24.39-168.25,65.21-212.54,41.47-45.02,101.33-44.28,164.7-43.5,8.48.1,17.25.21,26,.21,14.07,0,27.84,1.1,40.93,3.28.17.01.31.04.41.07.08,0,.21.02.29.04,6.85,1.16,13.02,2.41,18.85,3.82.71.18,1.4.35,2.18.52,5.56,1.39,11.38,3.11,17.83,5.26.44.16.84.29,1.23.41.58.19,1.15.37,1.68.59,5.94,2.01,11.48,4.13,16.84,6.47.61.28,1.2.51,1.82.76.38.15.77.31,1.17.47,4.87,2.16,9.96,4.64,16.04,7.84.7.31,1.42.72,2.11,1.1l.74.41c5.4,2.93,10.58,5.98,15.39,9.08l2.41,1.6c4.7,3,9.59,6.43,14.93,10.49.62.44,1.17.9,1.7,1.34,5.12,3.95,9.87,7.92,14.51,12.12.34.24.57.47.75.65,4.66,4.22,9.27,8.74,13.65,13.38l.77.76c3.48,3.57,6.82,7.36,9.93,11.27.84.92,1.76,1.93,2.59,3.04.19.22.42.53.66.83.21.27.41.54.62.79,4.03,5.06,7.61,9.89,10.96,14.79.37.59.89,1.39,1.47,2.16,3.49,5.14,6.69,10.32,9.57,15.47.25.41.49.84.74,1.26.24.41.48.83.74,1.26,3.07,5.49,5.78,10.76,8.3,16.14.36.9.7,1.75,1.1,2.47.02.04.04.08.06.12,2.9,6.53,5.13,11.95,7.02,17.07.15.44.28.81.41,1.18.13.38.27.76.4,1.17,2.49,6.95,4.36,12.75,5.86,18.21,0,.03.02.07.02.1.08.41.15.75.28,1.07.02.06.04.12.06.18,1.84,7.06,3.29,13.45,4.44,19.55,0,.03,0,.06.01.09.03.11.07.26.09.45,1.12,5.96,2.05,12.51,2.83,20.02,0,.05,0,.1,0,.16,0,.06,0,.3.13.79.03.12.04.24.04.37,0,.22,0,.34.04.52.02.07.03.15.04.22.27,2.75.45,5.62.62,8.4l.27,3.84c.18,4.17.27,8.21.27,12.4,0,56.09-17.81,109.34-51.49,153.97-32.58,43.18-78.9,75.49-130.41,91-10.97,3.29-22.04,5.84-32.92,7.56-13.44,2.24-27.24,3.38-41,3.38ZM440.92,95.8c-22.98,0-44.85.81-65.22,4.69-30.84,5.87-53.82,17.96-72.32,38.04-31.67,34.35-64.42,122.48-64.42,210.5,0,52.88,16.15,103.52,46.7,146.45,29.89,42,71.16,73.49,119.36,91.07,5.26,1.96,9.6,3.41,13.69,4.56,23.61,7.18,48.22,10.82,73.16,10.82,13.59,0,27.23-1.12,40.52-3.34,10.75-1.71,21.69-4.22,32.53-7.47,50.91-15.32,96.68-47.26,128.88-89.93,33.29-44.11,50.89-96.73,50.89-152.17,0-4.15-.09-8.15-.26-12.23l-.26-3.76c-.17-2.78-.35-5.59-.61-8.26-.08-.38-.1-.69-.1-.94-.11-.47-.17-.89-.18-1.24-.77-7.43-1.69-13.91-2.8-19.79,0-.03-.01-.06-.01-.09-.03-.11-.07-.26-.09-.45-1.13-5.98-2.56-12.26-4.36-19.18-.19-.51-.3-1-.38-1.44-1.48-5.37-3.32-11.08-5.79-17.97-.14-.42-.27-.78-.4-1.15-.14-.39-.27-.77-.41-1.18-1.85-5-4.05-10.35-6.91-16.78-.47-.87-.84-1.79-1.2-2.68-2.45-5.24-5.13-10.44-8.14-15.83-.25-.41-.49-.84-.74-1.26-.24-.41-.48-.83-.74-1.26-2.86-5.11-6.02-10.22-9.42-15.23-.6-.79-1.17-1.67-1.53-2.26-3.28-4.79-6.82-9.56-10.78-14.54-.21-.25-.44-.55-.67-.85-.21-.27-.42-.55-.63-.8-.8-1.06-1.62-1.97-2.5-2.94-.02-.02-.06-.07-.09-.1-3.05-3.83-6.32-7.54-9.72-11.03l-.78-.78c-4.35-4.62-8.91-9.08-13.57-13.3-.21-.21-.31-.3-.44-.39-.06-.04-.12-.09-.17-.14-4.6-4.17-9.32-8.11-14.41-12.04-.59-.49-1.07-.89-1.63-1.29-5.31-4.03-10.14-7.42-14.79-10.39l-2.41-1.61c-4.73-3.04-9.84-6.05-15.18-8.95l-.77-.42c-.67-.38-1.31-.73-1.97-1.03-6.1-3.2-11.12-5.66-15.9-7.78-.35-.15-.73-.3-1.09-.44-.66-.26-1.29-.51-1.93-.8-5.27-2.29-10.72-4.39-16.66-6.4-.55-.22-1.06-.38-1.57-.55-.42-.14-.86-.28-1.29-.44-6.34-2.12-12.09-3.81-17.54-5.17-.77-.17-1.49-.35-2.21-.53-5.73-1.39-11.79-2.62-18.53-3.76-.24-.01-.43-.06-.55-.08,0,0,.04,0,.08,0-.08,0-.17,0-.25-.02-12.95-2.16-26.58-3.25-40.52-3.25-8.76,0-17.54-.11-26.03-.21-8.43-.1-16.74-.21-24.91-.21ZM740.44,302.53h0s0,0,0,0ZM743.35,302.08h0s0,0,0,0Z" style="fill: #1c3759;"/>
          </g>
          <g style="mix-blend-mode: multiply; opacity: .4;">
            <path d="M746.18,349.04c0,114.96-76.22,212.05-180.84,243.53-10.61,3.18-21.58,5.75-32.72,7.52-13.26,2.21-26.88,3.36-40.77,3.36-25.56,0-50.32-3.8-73.57-10.88-4.69-1.33-9.28-2.92-13.79-4.6,4.6-1.15,9.2-2.48,13.79-3.89,13.44-4.07,26.71-8.93,39.62-14.59,14.86-6.46,39.88-17.51,66.94-36.26,22.11-15.39,45.54-35.9,65.97-63.14,0,0,71.1-94.97,96.03-284.21.88.97,1.77,1.95,2.56,3.01.44.53.88,1.15,1.33,1.68,3.8,4.78,7.43,9.64,10.88,14.68.44.71.97,1.5,1.5,2.21,3.36,4.95,6.54,10.08,9.46,15.3.53.88.97,1.68,1.5,2.56,2.92,5.22,5.66,10.52,8.22,16.01.35.88.71,1.77,1.15,2.56,2.48,5.57,4.86,11.23,6.99,16.98.27.8.53,1.5.8,2.3,2.12,5.93,4.16,12.03,5.84,18.13.09.44.18.88.35,1.33,1.68,6.46,3.18,12.91,4.42,19.45,0,.18.09.27.09.44,1.24,6.54,2.12,13.18,2.83,19.98,0,.35.09.8.18,1.15,0,.26,0,.53.09.88.27,2.74.44,5.57.62,8.4.09,1.24.18,2.56.27,3.8.18,4.07.27,8.13.27,12.29Z" style="fill: #ffbfaf;"/>
          </g>
          <g>
            <path d="M514.33,108.52c-5.56,25.94-17.8,67.18-47.07,109.85-16.81,24.5-46.12,66.1-101.35,92.13-65.49,30.86-127.51,21.03-151.35,15.9-14.74-130.75,39.91-251.43,132.42-300.91,77.65-41.41,155.42-18.31,178.45-10.43,0,0,261.32-101.41,258.9,309.73,0,0-9.74,8.15-24.97,4.46-21.25-5.14-32.73-24.4-57.96-66.54-40.41-67.51-54.96-84.58-64.43-94.81-9.05-9.78-25.31-26.11-49.73-39.8-16.76-9.4-29.56-13.19-33.95-14.41-15.65-4.35-29.3-5.23-38.96-5.16Z" style="fill: #1c3759;"/>
            <path d="M267.51,333.48c-21.76,0-40.25-2.81-53.27-5.61l-1.05-.23-.12-1.07c-7.22-64.09,1.8-126.93,26.11-181.71,24.14-54.4,61.17-96.13,107.09-120.7C379.67,6.35,416.85-1.68,456.75.29c22.88,1.13,46.61,5.69,68.65,13.18,3.51-1.28,24.4-8.53,52.55-10.48,28.42-1.97,70.3,1.2,108.43,27.47,30.21,20.81,53.91,53.06,70.44,95.87,19.72,51.04,29.48,117.82,29,198.47v.7s-.54.45-.54.45c-.42.35-10.5,8.59-26.28,4.77-21.81-5.28-33.38-24.61-58.73-66.95l-.17-.28c-42.61-71.19-56.68-86.39-64.25-94.56-5.64-6.09-22.78-24.61-49.36-39.52-11.39-6.39-23.01-11.32-33.61-14.27-12.13-3.37-24.69-5.09-37.34-5.11-8.63,39.55-24.46,76.28-47.05,109.2-15.8,23.03-45.22,65.9-101.95,92.64-35.3,16.64-70.07,21.62-99.04,21.62ZM215.92,325.16c30.3,6.37,89.03,12.41,149.34-16.02,55.99-26.39,85.11-68.82,100.76-91.62,22.59-32.92,38.35-69.7,46.84-109.31l.25-1.18h1.2c13.33-.1,26.59,1.66,39.37,5.21,10.83,3.01,22.69,8.04,34.28,14.54,26.99,15.14,44.38,33.92,50.09,40.09,7.64,8.25,21.85,23.6,64.62,95.05l.17.28c24.9,41.61,36.27,60.6,56.86,65.58,12.39,3,20.96-2.23,23.12-3.76.41-79.93-9.28-146.08-28.79-196.61-16.31-42.23-39.64-74.02-69.33-94.48-37.39-25.77-78.52-28.89-106.44-26.97-30.33,2.09-52.08,10.4-52.3,10.49l-.51.2-.52-.18c-21.92-7.5-45.55-12.06-68.33-13.19-39.36-1.94-76.01,5.97-108.93,23.53-45.32,24.24-81.9,65.49-105.76,119.27-23.96,53.99-32.94,115.89-25.99,179.08Z" style="fill: #1c3759;"/>
          </g>
          <path d="M358.21,91.29c-1.18-4.73-8.07-10.12-13.92-11.74-12.54-3.48-20.39,10.37-24.13,16.97-6.53,11.53-9.02,26.94-5.26,29.16,3.2,1.88,6.55-7.86,22.95-18.57,12.74-8.32,21.9-9.65,20.36-15.82Z" style="fill: #fff;"/>
        </g>
        <path d="M186.74,741.83c-1.11-8.08-11.01-15-19.86-15.54-18.99-1.14-33.33,27.15-40.17,40.65-11.94,23.57-18.18,52.5-12.66,54.96,4.69,2.09,11.4-16.93,38.57-43.06,21.1-20.3,35.57-26.47,34.12-37.02Z" style="fill: #fff;"/>
      </g>
    </g>
  </g>
</svg>