<?xml version="1.0" encoding="UTF-8"?>
<svg xmlns="http://www.w3.org/2000/svg" width="986.65" height="1172.6" viewBox="0 0 986.65 1172.6">
  <g style="isolation: isolate;">
    <g id="Layer_1" data-name="Layer 1">
      <g>
        <path d="M959.65,1103.9H27c-14.6,0-26.26-12.19-25.46-26.69.08-1.46.17-2.9.27-4.35.06-1.08.13-2.16.21-3.26.09-1.38.21-2.76.32-4.16.62-8.1,1.48-16.15,2.52-24.16.23-1.74.45-3.5.7-5.24.49-3.45,1-6.89,1.57-10.3.19-1.25.4-2.5.62-3.75.98-5.85,2.1-11.66,3.29-17.44.51-2.46,1.04-4.9,1.59-7.35.38-1.63.74-3.26,1.14-4.88.32-1.36.64-2.74.98-4.11.66-2.74,1.36-5.47,2.08-8.2.36-1.36.72-2.73,1.1-4.09,1.99-7.33,4.16-14.6,6.49-21.79.49-1.57,1-3.12,1.53-4.68,2.59-7.78,5.4-15.45,8.37-23.04.51-1.34,1.06-2.69,1.59-4.03.79-1.99,1.61-3.98,2.44-5.94,1.06-2.57,2.16-5.13,3.28-7.67,4.26-9.73,8.8-19.29,13.67-28.68.85-1.69,1.74-3.35,2.61-5.02.93-1.74,1.86-3.46,2.8-5.17.8-1.46,1.59-2.92,2.4-4.35,2.01-3.58,4.05-7.14,6.13-10.66.98-1.65,1.97-3.29,2.97-4.94,5.07-8.35,10.39-16.55,15.98-24.57,1.36-1.99,2.76-3.98,4.17-5.94.28-.4.57-.8.85-1.17,1.46-2.04,2.93-4.07,4.43-6.08.08-.11.15-.21.23-.32,1.57-2.1,3.16-4.2,4.75-6.27,1.46-1.93,2.95-3.82,4.45-5.72,2.04-2.61,4.13-5.19,6.25-7.74,1.61-1.95,3.22-3.88,4.85-5.79,1.78-2.1,3.58-4.18,5.4-6.25,1.4-1.61,2.82-3.22,4.28-4.79.76-.87,1.53-1.72,2.33-2.57,2.74-3.03,5.55-6.02,8.39-8.95.95-1,1.89-1.99,2.86-2.97,1.48-1.51,2.95-2.99,4.45-4.49,2.35-2.39,4.75-4.73,7.18-7.04,1.12-1.08,2.25-2.16,3.39-3.22.83-.8,1.69-1.59,2.52-2.37,1.68-1.57,3.39-3.12,5.09-4.66,1.65-1.5,3.31-2.97,4.98-4.45,2.56-2.27,5.15-4.51,7.76-6.7,1.99-1.68,3.99-3.33,6-4.98,2.01-1.65,4.01-3.26,6.04-4.87.19-.15.38-.3.57-.45,2.1-1.65,4.2-3.29,6.34-4.92,2.14-1.65,4.3-3.28,6.47-4.87.28-.23.57-.44.85-.64,1.95-1.44,3.94-2.86,5.91-4.26.04-.06.09-.09.13-.09,1.68-1.21,3.37-2.4,5.05-3.56.93-.66,1.86-1.31,2.78-1.93.06-.04.11-.08.17-.11,1.82-1.25,3.65-2.5,5.51-3.71,2.14-1.42,4.28-2.84,6.46-4.22.28-.19.57-.38.87-.55,1.72-1.12,3.46-2.21,5.21-3.29.89-.57,1.78-1.12,2.67-1.65,1.93-1.19,3.86-2.35,5.79-3.5,2.1-1.25,4.2-2.48,6.32-3.69.42-.27.85-.51,1.27-.74,2.25-1.29,4.52-2.56,6.8-3.81,2.42-1.34,4.87-2.65,7.31-3.94,2.04-1.08,4.11-2.16,6.17-3.22.51-.27,1-.53,1.51-.76,2.37-1.21,4.73-2.39,7.12-3.54,2.31-1.12,4.62-2.23,6.95-3.31.42-.21.83-.4,1.25-.59,1.74-.8,3.48-1.59,5.22-2.39,1.97-.89,3.96-1.76,5.94-2.61,1.99-.87,3.98-1.72,5.98-2.56,1.57-.66,3.14-1.31,4.71-1.95.76-.3,1.5-.61,2.25-.91,1.21-.47,2.42-.97,3.62-1.42,2.52-1,5.04-1.95,7.57-2.9,1.59-.59,3.16-1.17,4.75-1.72,6.19-2.25,12.46-4.35,18.76-6.34,1.42-.45,2.86-.91,4.32-1.34.38-.11.76-.23,1.14-.34.76-.23,1.5-.45,2.25-.68,0,.02.02,0,.02,0,1.19-.36,2.4-.72,3.62-1.06,1.29-.38,2.59-.74,3.9-1.12.85-.23,1.7-.45,2.56-.7,1.36-.38,2.74-.74,4.13-1.1,1.89-.51,3.79-1,5.7-1.48,4.64-1.15,9.3-2.25,13.99-3.28,1.4-.32,2.82-.64,4.24-.93,5.77-1.21,11.57-2.33,17.4-3.33,1.63-.28,3.26-.55,4.88-.81,1-.17,2.03-.32,3.03-.49.95-.13,1.91-.28,2.86-.42,1.86-.28,3.73-.55,5.6-.81,7-.97,14.05-1.78,21.13-2.42,1.53-.15,3.07-.28,4.6-.42,2.23-.19,4.49-.36,6.74-.51,1.61-.11,3.24-.23,4.87-.32,1.17-.08,2.37-.13,3.56-.19,1.5-.09,3.01-.17,4.51-.21.3-.04.62-.04.93-.06,1.63-.08,3.24-.13,4.87-.17,2.82-.09,5.64-.15,8.48-.19,2.27-.04,4.56-.06,6.85-.06,5.24,0,10.45.08,15.66.25h.02c6.66.21,13.29.57,19.9,1.06,1.46.09,2.92.21,4.35.32,2.52.21,5.04.44,7.55.68,2.44.23,4.9.49,7.35.78,1.82.21,3.63.42,5.43.66,1.16.11,2.29.27,3.45.44.97.11,1.91.23,2.86.38,1.67.23,3.33.45,5,.72.17,0,.32.04.49.08.47.06.97.11,1.44.21,1.97.28,3.9.61,5.85.93,1.48.23,2.93.47,4.39.74.74.11,1.46.25,2.2.4,1.68.28,3.39.61,5.07.95,1.16.19,2.29.42,3.43.64.98.19,1.97.4,2.95.61,1.63.32,3.28.66,4.9,1.02,1.06.21,2.14.45,3.2.7,1.53.32,3.09.68,4.62,1.04.61.13,1.19.26,1.8.42,2.18.51,4.35,1.04,6.51,1.59.3.06.59.13.89.23,1.91.47,3.82.97,5.72,1.48.8.21,1.59.42,2.39.64,1.91.51,3.82,1.04,5.72,1.59,1.1.3,2.2.62,3.29.95.8.23,1.61.47,2.4.72,1.57.45,3.12.93,4.68,1.4,1.04.32,2.06.64,3.09.97,1.29.4,2.57.81,3.86,1.25,1.12.34,2.23.72,3.35,1.1,1.48.47,2.93.98,4.41,1.5.72.23,1.44.49,2.18.76,1.63.55,3.26,1.14,4.88,1.72.95.34,1.89.68,2.86,1.04,1.44.53,2.88,1.06,4.3,1.61.76.28,1.5.57,2.25.85,1.84.7,3.65,1.42,5.47,2.14.19.08.38.15.59.25,2.06.81,4.13,1.65,6.17,2.52,2.08.85,4.16,1.72,6.23,2.63,1.34.57,2.67,1.15,3.99,1.76,3.24,1.42,6.47,2.9,9.69,4.39,2.08.97,4.15,1.95,6.19,2.95.21.09.42.21.62.3,1.19.59,2.39,1.17,3.58,1.78,1.38.68,2.75,1.36,4.11,2.06,7.63,3.88,15.15,7.95,22.53,12.23,1.23.7,2.46,1.42,3.69,2.14,3.99,2.35,7.95,4.75,11.87,7.21,2.04,1.27,4.09,2.57,6.11,3.88,2.03,1.31,4.03,2.63,6.04,3.98,1.86,1.23,3.71,2.48,5.55,3.75.21.13.4.28.61.42,1.42.98,2.86,1.99,4.26,2.99.66.45,1.34.93,2.01,1.4,1.36.97,2.71,1.95,4.05,2.93,2.65,1.91,5.3,3.88,7.91,5.85,1.46,1.12,2.92,2.23,4.37,3.37.25.19.49.38.72.55,1.67,1.31,3.31,2.61,4.96,3.94.28.21.55.42.83.64,1.17.95,2.33,1.89,3.48,2.84,1.21.97,2.4,1.95,3.6,2.97.47.38.93.76,1.4,1.15,1.1.93,2.2,1.86,3.29,2.8,1.38,1.17,2.76,2.37,4.13,3.56.23.19.47.4.7.62,1.19,1.02,2.37,2.06,3.54,3.12,1.1.97,2.2,1.95,3.28,2.95.68.61,1.34,1.21,2.01,1.84.95.85,1.87,1.7,2.8,2.59,1.06.98,2.12,1.97,3.16,2.99,1.36,1.27,2.71,2.57,4.05,3.88,1.51,1.46,3.03,2.93,4.51,4.43.34.34.7.68,1.04,1.02.98.98,1.97,1.97,2.93,2.97,1.02,1.02,2.04,2.06,3.05,3.12,1.38,1.44,2.76,2.88,4.13,4.34,1.46,1.53,2.9,3.09,4.32,4.64l.68.74c1.61,1.76,3.2,3.52,4.77,5.3,1.29,1.44,2.57,2.9,3.84,4.37,2.04,2.35,4.07,4.73,6.06,7.12.93,1.1,1.84,2.2,2.74,3.31.87,1.02,1.7,2.06,2.54,3.1,1.31,1.61,2.61,3.24,3.9,4.88,1.53,1.95,3.05,3.9,4.56,5.87,1.06,1.38,2.1,2.76,3.14,4.17,4.9,6.55,9.64,13.23,14.22,20.03,48.18,71.37,78.17,155.9,83.11,246.55.8,14.5-10.87,26.69-25.46,26.69Z" style="fill: #93c6ed;"/>
        <g style="mix-blend-mode: multiply; opacity: .4;">
          <path d="M370.91,846.95c23.04-15.43,47.21-29.19,72.25-41.11,14.8,19.24,29.6,38.48,44.39,57.73,1.29-31.29,2.58-62.59,3.87-93.88,1.12-27.15,2.07-55.32-8.37-80.41-10.44-25.09-35.69-46.22-62.64-42.72-17.76,2.31-36.2,14.09-51.69,22.61-16.52,9.08-10,27.63-9.07,44.8,1.21,22.43,2.76,44.84,4.66,67.21.62,7.25,10.49,63.17,6.6,65.78Z" style="fill: #59c7b1;"/>
        </g>
        <g style="mix-blend-mode: multiply; opacity: .4;">
          <path d="M649.95,679.27c2.13,1.25,4.42,2.69,5.18,5.04.52,1.6.22,3.33-.08,4.98-8.86,48.28-13.93,117.66-22.78,165.93-25.31-10.87-64.44-39.82-89.75-50.69-14.72,21.26-20.05,39.04-36.02,59.37-7.4-14.62-4.87-42.22-6.36-58.54-4.23-46.16-9.84-81.69-7.73-128,.14-3.15.43-6.61,2.63-8.87,1.86-1.91,4.64-2.5,7.25-3.01,29.24-5.65,58.48-11.31,87.72-16.96,17.49-3.38,45.3,22.15,59.95,30.75Z" style="fill: #59c7b1;"/>
        </g>
        <path d="M959.65,1105.4H27c-7.52,0-14.5-3-19.67-8.46-5.11-5.4-7.7-12.43-7.29-19.82.07-1.37.16-2.73.25-4.11l.02-.26c.06-1.05.13-2.13.21-3.22.09-1.32.19-2.6.3-3.9l.03-.33c.6-7.82,1.45-15.98,2.53-24.23l.04-.33c.21-1.64.43-3.29.66-4.93.41-2.86.96-6.61,1.58-10.34.19-1.24.4-2.51.63-3.77.91-5.39,1.99-11.12,3.3-17.47.51-2.47,1.04-4.92,1.59-7.37l.38-1.63c.25-1.09.5-2.19.77-3.28l.14-.6c.28-1.17.55-2.35.85-3.52.59-2.46,1.26-5.08,2.09-8.21.36-1.37.72-2.74,1.1-4.11,1.93-7.12,4.12-14.47,6.51-21.85.49-1.57,1.01-3.13,1.54-4.7,2.49-7.46,5.31-15.24,8.39-23.1.34-.9.71-1.82,1.07-2.73l.52-1.31c.8-2,1.62-4,2.46-5.98.97-2.35,2.04-4.87,3.28-7.69,4.32-9.88,8.94-19.55,13.71-28.77.61-1.21,1.25-2.41,1.88-3.62l.74-1.4c.94-1.76,1.87-3.49,2.82-5.2.79-1.45,1.59-2.92,2.41-4.36,2.06-3.67,4.13-7.26,6.15-10.68.99-1.66,1.98-3.31,2.98-4.96,5.14-8.46,10.54-16.75,16.03-24.65,1.36-1.99,2.77-3.98,4.17-5.96.29-.41.58-.81.87-1.2,1.46-2.04,2.95-4.09,4.43-6.08,0,0,.05-.08.1-.15l.08-.11c1.62-2.18,3.22-4.28,4.81-6.35,1.48-1.96,3-3.88,4.46-5.73,1.97-2.51,4.02-5.06,6.27-7.77,1.61-1.95,3.23-3.89,4.86-5.81,1.77-2.09,3.6-4.2,5.41-6.27,1.17-1.34,2.71-3.1,4.3-4.82.74-.85,1.53-1.71,2.33-2.58,2.73-3.01,5.56-6.03,8.41-8.97.94-1,1.89-1.99,2.87-2.98,1.48-1.52,2.96-3,4.46-4.5,2.18-2.22,4.54-4.53,7.2-7.07,1.12-1.08,2.26-2.16,3.4-3.23.83-.79,1.68-1.59,2.52-2.37,1.69-1.58,3.4-3.14,5.11-4.67,1.65-1.49,3.32-2.98,4.99-4.46,2.46-2.18,5.01-4.39,7.79-6.73,1.95-1.66,3.93-3.28,5.91-4.9l.11-.09c2.01-1.65,4.03-3.27,6.06-4.88l.57-.45c2.12-1.66,4.23-3.31,6.37-4.94,2.33-1.79,4.45-3.39,6.5-4.88.25-.2.55-.42.85-.64,1.91-1.41,3.86-2.8,5.79-4.18.12-.11.25-.21.4-.28,1.89-1.36,3.46-2.47,4.94-3.48.92-.65,1.85-1.31,2.79-1.94l.17-.11c1.63-1.12,3.57-2.45,5.53-3.72,2.1-1.39,4.28-2.84,6.47-4.23.29-.19.6-.4.94-.59,1.65-1.07,3.4-2.18,5.15-3.26.89-.57,1.79-1.12,2.69-1.66,1.84-1.14,3.7-2.25,5.57-3.37l.22-.13c2.11-1.26,4.22-2.49,6.35-3.71.38-.25.85-.51,1.29-.75,2.23-1.28,4.51-2.55,6.79-3.8,2.13-1.18,4.46-2.44,7.33-3.95,2.05-1.08,4.12-2.16,6.19-3.23l.28-.14c.44-.23.87-.45,1.32-.65,2.21-1.14,4.55-2.3,7.07-3.52,2.32-1.12,4.63-2.24,6.97-3.32.39-.2.83-.39,1.26-.59l5.22-2.38c1.98-.9,3.98-1.77,5.98-2.63,1.99-.87,3.98-1.73,6-2.56,1.57-.66,3.14-1.31,4.72-1.95l3.65-1.46c.76-.3,1.51-.6,2.26-.88,2.55-1.02,5.15-1.99,7.58-2.9l.66-.25c1.38-.51,2.74-1.01,4.12-1.49,5.9-2.15,12.06-4.23,18.8-6.36,1.42-.46,2.87-.91,4.34-1.35l3.39-1.02s.08-.02.12-.03c1.17-.35,2.35-.7,3.54-1.04.7-.21,1.41-.41,2.13-.61.58-.17,1.17-.33,1.76-.5.01,0,.11-.03.12-.03.81-.22,1.63-.43,2.44-.67,1.39-.38,2.78-.75,4.17-1.11,1.89-.51,3.79-1,5.71-1.48,4.96-1.23,9.55-2.31,14.03-3.29,1.4-.32,2.83-.65,4.26-.93,5.95-1.25,11.83-2.37,17.44-3.34,1.63-.28,3.27-.55,4.9-.82,1-.17,2.02-.32,3.05-.48.96-.15,1.91-.3,2.88-.44,1.84-.28,3.72-.55,5.6-.81,7.14-.98,14.27-1.8,21.2-2.43,1.46-.14,2.93-.27,4.41-.4l.2-.02c2.25-.19,4.51-.36,6.77-.51,1.61-.11,3.25-.23,4.88-.32,1.17-.08,2.37-.13,3.58-.19,1.65-.1,3.12-.17,4.47-.21.22-.02.44-.03.67-.04h.28c1.66-.09,3.28-.15,4.92-.19,2.55-.09,5.26-.15,8.5-.19,2.28-.04,4.58-.06,6.87-.06,5.48,0,10.62.08,15.71.25,6.5.2,13.22.56,19.98,1.06,1.45.09,2.92.21,4.36.32,2.53.21,5.06.44,7.58.68,2.28.21,4.69.47,7.37.78,1.83.21,3.65.42,5.46.67.99.1,2.07.23,3.46.44.95.11,1.91.23,2.88.38h.09c1.61.23,3.21.45,4.82.71.24.01.44.06.6.09.51.06,1,.12,1.48.22,1.73.25,3.51.54,5.3.84l.5.08c1.47.23,2.95.48,4.42.74.72.11,1.47.25,2.23.4,1.55.26,3.22.57,5.07.95,1.12.18,2.27.41,3.42.64.98.19,1.98.4,2.97.61,1.62.32,3.28.66,4.92,1.03,1.04.2,2.14.45,3.22.71,1.51.32,3.08.68,4.62,1.04.6.13,1.2.27,1.82.42,2.17.51,4.35,1.04,6.52,1.59.27.05.61.13.97.25,1.83.45,3.76.95,5.66,1.46l.11.03c.76.2,1.53.4,2.29.62,1.9.51,3.82,1.04,5.72,1.59,1.04.29,2.09.59,3.14.9l.16.04c.8.23,1.62.48,2.43.73,1.55.45,3.11.92,4.67,1.4,1.05.32,2.07.65,3.1.97,1.29.4,2.59.82,3.89,1.26,1.09.33,2.22.71,3.35,1.1,1.28.41,2.58.86,3.88,1.31l.54.19c.6.19,1.25.42,1.9.66l.29.11c1.61.54,3.25,1.13,4.88,1.72.95.34,1.9.68,2.87,1.05,1.44.53,2.89,1.06,4.31,1.62l2.24.85c1.85.71,3.68,1.43,5.5,2.15.21.08.42.17.66.28,2.37.93,4.35,1.74,6.14,2.5,2.43,1,4.42,1.84,6.25,2.64,1.34.57,2.67,1.16,4.01,1.77,2.91,1.28,6,2.68,9.7,4.4,2.09.97,4.19,1.97,6.22,2.97.08.04.2.09.32.15.09.04.18.09.27.13,1.24.61,2.44,1.2,3.64,1.81,1.37.68,2.75,1.36,4.11,2.07,7.75,3.94,15.35,8.07,22.59,12.27,1.23.7,2.46,1.42,3.7,2.14,4,2.35,8,4.78,11.91,7.24,2.04,1.27,4.1,2.58,6.13,3.89,2.03,1.31,4.05,2.64,6.06,3.99,1.86,1.23,3.72,2.49,5.56,3.76.08.05.2.14.33.22.08.05.15.11.23.16,1.47,1.02,2.92,2.03,4.33,3.04.65.44,1.33.92,2.01,1.4,1.33.94,2.64,1.9,3.96,2.86l.11.08c2.4,1.73,5,3.65,7.93,5.86l.35.27c1.35,1.03,2.7,2.07,4.04,3.12l.7.53c1.7,1.33,3.35,2.64,5,3.97.25.18.53.4.83.64,1.07.86,2.12,1.72,3.17,2.58l.33.27c1.25,1,2.44,1.98,3.62,2.99.44.35.91.74,1.39,1.14,1.1.93,2.21,1.86,3.31,2.81,1.38,1.17,2.77,2.37,4.13,3.57.22.18.48.41.73.65,1.19,1.02,2.36,2.06,3.53,3.11,1.09.96,2.2,1.96,3.29,2.97.67.59,1.34,1.21,2.01,1.84.93.84,1.87,1.7,2.81,2.6,1.05.98,2.12,1.97,3.17,3,1.34,1.25,2.69,2.56,4.05,3.88,1.84,1.77,3.24,3.15,4.53,4.45l.5.49c.18.17.36.35.54.53.99.99,1.98,1.98,2.96,2.99,1.01,1.01,2.04,2.06,3.06,3.13l.09.1c1.35,1.41,2.71,2.82,4.04,4.24,1.46,1.53,2.9,3.09,4.33,4.65l.68.73c1.62,1.77,3.21,3.54,4.79,5.33,1.29,1.44,2.58,2.91,3.86,4.39,1.95,2.24,4,4.64,6.07,7.14.93,1.1,1.84,2.2,2.76,3.33.86,1.01,1.7,2.06,2.54,3.12,1.3,1.61,2.62,3.24,3.91,4.9,1.54,1.95,3.05,3.91,4.57,5.88,1.07,1.39,2.11,2.78,3.16,4.18,4.79,6.39,9.58,13.15,14.26,20.09,49.73,73.67,78.56,159.19,83.36,247.3.4,7.38-2.19,14.42-7.29,19.82-5.16,5.45-12.15,8.46-19.67,8.46ZM209.91,704.06s-.04.03-.07.05c-1.96,1.4-3.94,2.81-5.89,4.25-.27.2-.54.39-.81.61-2.08,1.52-4.19,3.1-6.5,4.88-2.14,1.63-4.24,3.27-6.33,4.92l-.56.45c-2.02,1.61-4.02,3.21-6.02,4.85l-.11.09c-1.96,1.61-3.93,3.23-5.88,4.88-2.77,2.33-5.29,4.51-7.74,6.68-1.66,1.47-3.32,2.95-4.97,4.44-1.7,1.53-3.4,3.08-5.08,4.64-.83.77-1.68,1.56-2.5,2.35-1.14,1.07-2.27,2.14-3.38,3.21-2.64,2.52-4.98,4.81-7.15,7.02-1.5,1.5-2.97,2.97-4.44,4.48-.96.98-1.9,1.96-2.84,2.95-2.84,2.93-5.65,5.93-8.37,8.93-.8.86-1.56,1.7-2.31,2.55-1.59,1.72-3.12,3.46-4.28,4.79-1.81,2.05-3.62,4.15-5.38,6.23-1.62,1.91-3.23,3.83-4.83,5.78-2.24,2.69-4.27,5.22-6.22,7.71-1.46,1.85-2.96,3.75-4.43,5.7-1.59,2.07-3.18,4.17-4.75,6.26,0,0-.05.08-.1.14l-.08.11c-1.51,2.03-3,4.07-4.46,6.12-.3.4-.58.79-.85,1.17-1.39,1.96-2.79,3.94-4.15,5.92-5.46,7.85-10.82,16.09-15.93,24.5-1,1.64-1.98,3.29-2.97,4.93-2.01,3.39-4.07,6.97-6.11,10.62-.81,1.44-1.6,2.89-2.4,4.34-.95,1.71-1.87,3.42-2.79,5.16l-.74,1.4c-.63,1.19-1.25,2.38-1.86,3.59-4.75,9.17-9.33,18.79-13.63,28.61-1.23,2.8-2.3,5.29-3.26,7.64-.83,1.97-1.65,3.95-2.44,5.93l-.52,1.31c-.36.9-.72,1.8-1.06,2.7-3.07,7.83-5.87,15.56-8.35,22.98-.53,1.55-1.04,3.09-1.52,4.65-2.38,7.35-4.56,14.66-6.48,21.73-.38,1.37-.74,2.72-1.09,4.08-.82,3.12-1.48,5.71-2.07,8.17-.29,1.17-.57,2.33-.84,3.49l-.14.61c-.27,1.09-.51,2.17-.76,3.25l-.38,1.63c-.54,2.42-1.07,4.86-1.58,7.31-1.3,6.32-2.38,12-3.28,17.38-.23,1.25-.43,2.49-.62,3.72-.62,3.72-1.16,7.45-1.57,10.29-.23,1.62-.44,3.26-.65,4.89l-.04.33c-1.07,8.2-1.91,16.3-2.51,24.08l-.03.33c-.1,1.28-.21,2.55-.29,3.82-.08,1.12-.15,2.18-.21,3.23l-.02.28c-.09,1.36-.18,2.71-.25,4.07-.36,6.56,1.94,12.81,6.48,17.6,4.59,4.85,10.8,7.52,17.49,7.52h932.65c6.69,0,12.9-2.67,17.49-7.52,4.54-4.79,6.84-11.04,6.48-17.59-4.77-87.57-33.42-172.57-82.86-245.79-4.65-6.89-9.42-13.61-14.17-19.97-1.04-1.4-2.08-2.78-3.13-4.15-1.51-1.96-3.02-3.91-4.55-5.85-1.28-1.64-2.58-3.26-3.88-4.87-.83-1.04-1.65-2.07-2.51-3.08-.92-1.14-1.83-2.23-2.75-3.32-2.07-2.48-4.1-4.87-6.04-7.1-1.27-1.48-2.55-2.93-3.83-4.36-1.57-1.78-3.16-3.53-4.76-5.29l-.68-.73c-1.42-1.55-2.85-3.1-4.3-4.62-1.33-1.43-2.68-2.83-4.02-4.23l-.1-.11c-1-1.06-2.01-2.09-3.03-3.1-.98-1.02-1.96-2-2.93-2.97l-.51-.5c-.18-.17-.36-.35-.54-.53-1.28-1.29-2.66-2.65-4.49-4.41-1.34-1.3-2.68-2.6-4.03-3.86-1.06-1.04-2.11-2.01-3.16-2.99-.93-.9-1.85-1.74-2.78-2.58-.68-.64-1.33-1.23-2-1.83-1.09-1.02-2.18-1.99-3.27-2.95-1.18-1.06-2.34-2.1-3.53-3.11-.03-.03-.06-.05-.09-.08-.19-.19-.41-.37-.6-.53-1.38-1.21-2.76-2.4-4.14-3.57-1.1-.95-2.2-1.88-3.29-2.8-.46-.39-.9-.76-1.37-1.13-1.2-1.02-2.36-1.99-3.6-2.97l-.34-.28c-1.04-.85-2.09-1.71-3.15-2.56-.26-.21-.51-.41-.78-.6-1.7-1.36-3.34-2.67-5-3.97l-.71-.54c-1.35-1.05-2.69-2.08-4.03-3.11l-.34-.26c-2.91-2.19-5.49-4.1-7.88-5.82l-.12-.09c-1.3-.95-2.6-1.91-3.92-2.84-.66-.47-1.34-.94-1.99-1.39-1.42-1.02-2.85-2.01-4.26-3-.08-.05-.2-.13-.32-.22-.08-.06-.16-.11-.24-.17-1.88-1.3-3.73-2.54-5.57-3.77-2-1.34-4-2.66-6.02-3.96-2.02-1.3-4.05-2.6-6.09-3.87-3.89-2.44-7.87-4.86-11.84-7.19-1.22-.71-2.45-1.43-3.67-2.13-7.2-4.17-14.76-8.28-22.47-12.2-1.36-.7-2.72-1.38-4.09-2.05-1.2-.61-2.39-1.2-3.58-1.78-.08-.04-.2-.1-.33-.16-.09-.04-.17-.09-.26-.13-2.05-1.01-4.12-2-6.2-2.96-3.68-1.71-6.75-3.1-9.67-4.38-1.33-.61-2.65-1.19-3.98-1.75-1.82-.8-3.79-1.63-6.21-2.63-1.79-.76-3.73-1.55-6.15-2.51-.25-.11-.42-.18-.59-.25-1.81-.72-3.62-1.43-5.45-2.13l-2.24-.85c-1.43-.55-2.86-1.08-4.29-1.61-.96-.36-1.91-.7-2.85-1.04-1.62-.58-3.24-1.17-4.86-1.71l-.32-.12c-.62-.22-1.22-.44-1.83-.63l-.58-.2c-1.28-.44-2.55-.88-3.83-1.3-1.13-.38-2.23-.76-3.33-1.09-1.32-.45-2.59-.86-3.87-1.25-1.03-.32-2.05-.64-3.09-.96-1.54-.47-3.09-.94-4.65-1.39-.81-.25-1.62-.49-2.4-.72l-.16-.05c-1.04-.3-2.08-.61-3.12-.89-1.9-.55-3.8-1.08-5.71-1.59-.77-.22-1.51-.42-2.26-.61l-.12-.03c-1.89-.51-3.8-1-5.7-1.47-.33-.1-.56-.16-.8-.21-2.24-.57-4.41-1.1-6.58-1.61-.61-.15-1.18-.28-1.77-.41-1.54-.36-3.09-.72-4.61-1.04-1.08-.25-2.14-.49-3.18-.7-1.65-.36-3.29-.7-4.91-1.02-1-.21-1.97-.42-2.95-.6-1.13-.23-2.25-.45-3.39-.64-1.87-.38-3.51-.68-5.08-.95-.77-.16-1.46-.28-2.18-.39-1.48-.27-2.93-.51-4.39-.74l-.52-.09c-1.77-.29-3.53-.58-5.32-.84-.5-.1-.94-.15-1.36-.2-.05,0-.14-.02-.19-.03-.09-.02-.14-.03-.19-.04-.08,0-.13,0-.21-.02-1.61-.26-3.23-.48-4.84-.7l-.12-.02c-.96-.15-1.89-.26-2.83-.38-1.38-.2-2.42-.33-3.42-.43-1.85-.25-3.65-.46-5.46-.67-2.66-.31-5.05-.56-7.31-.77-2.52-.25-5.03-.47-7.54-.68-1.42-.11-2.88-.23-4.33-.32-6.73-.5-13.4-.86-19.85-1.06-5.08-.17-10.18-.25-15.63-.25-2.28,0-4.56.02-6.83.06-3.22.04-5.91.1-8.46.19-1.63.04-3.23.09-4.85.17l-.32.02c-.17,0-.33.01-.5.03-.05,0-.1,0-.15.01-1.33.03-2.79.1-4.45.21-1.21.06-2.39.11-3.56.19-1.63.09-3.25.21-4.86.32-2.25.15-4.49.32-6.72.51l-.2.02c-1.46.13-2.92.25-4.38.4-6.9.63-13.98,1.44-21.07,2.42-1.86.26-3.73.53-5.58.81-.97.13-1.9.28-2.83.43-1.05.16-2.04.31-3.03.47-1.63.27-3.26.53-4.88.81-5.58.96-11.42,2.08-17.35,3.32-1.42.28-2.83.6-4.21.92-4.47.97-9.03,2.04-13.96,3.27-1.9.47-3.79.96-5.67,1.47-1.39.36-2.76.72-4.12,1.09-.82.24-1.65.46-2.48.68-.65.19-1.24.35-1.83.52-.71.2-1.42.4-2.12.61-1.2.34-2.39.69-3.55,1.04-.07.02-.13.04-.2.05l-3.26.98c-1.45.43-2.88.88-4.29,1.34-6.71,2.12-12.83,4.18-18.71,6.32-1.38.48-2.73.98-4.08,1.48l-.66.24c-2.42.9-4.99,1.87-7.54,2.88-.76.29-1.5.58-2.24.88l-3.63,1.45c-1.55.64-3.12,1.28-4.69,1.94-2.01.83-3.98,1.68-5.96,2.55-1.99.85-3.97,1.72-5.93,2.61l-5.22,2.38c-.4.18-.8.37-1.2.57-2.36,1.09-4.66,2.21-6.96,3.32-2.5,1.21-4.82,2.36-7.09,3.52-.46.21-.84.4-1.22.6l-.29.15c-2.06,1.06-4.12,2.14-6.16,3.21-2.85,1.5-5.16,2.75-7.28,3.92-2.27,1.25-4.53,2.51-6.78,3.8-.41.23-.82.46-1.21.7-2.17,1.24-4.27,2.47-6.36,3.72l-.22.13c-1.85,1.11-3.7,2.21-5.55,3.36-.9.53-1.77,1.08-2.65,1.63-1.75,1.08-3.48,2.18-5.2,3.29-.35.2-.6.37-.86.54-2.19,1.39-4.36,2.83-6.46,4.22-1.94,1.26-3.86,2.58-5.49,3.7l-.2.13c-.9.61-1.82,1.24-2.73,1.9-1.52,1.04-3.11,2.16-5.05,3.56-.02.02-.05.03-.07.05ZM209.12,704.3h0,0Z" style="fill: #1c3759;"/>
        <g>
          <polygon points="572.59 1077.64 551.77 1103.9 444.56 1103.9 435.89 1092.94 423.77 1077.64 424.21 1076.01 483.44 858.22 488.53 839.46 488.53 839.42 488.55 839.39 493.82 820.06 489.61 813.32 461.71 768.58 452.45 753.72 452.45 753.7 442.87 738.35 553.49 738.35 534.63 768.6 509.64 808.64 502.56 819.96 508.55 842.02 571.46 1073.48 572.59 1077.64" style="fill: #0083bf;"/>
          <path d="M551.77,1105.4h-107.21c-.46,0-.89-.21-1.18-.57l-20.79-26.26c-.29-.37-.4-.86-.27-1.32l.44-1.63,59.24-217.79,5.07-18.67c.02-.09.04-.18.07-.26l5.06-18.6-41.02-65.78s-.06-.1-.08-.15l-9.5-15.22c-.29-.46-.3-1.04-.04-1.52s.77-.77,1.31-.77h110.62c.54,0,1.05.3,1.31.77.26.48.25,1.06-.04,1.52l-18.86,30.25-31.72,50.81,5.81,21.42,64.05,235.62c.12.46.02.95-.27,1.33l-20.83,26.26c-.28.36-.72.57-1.17.57ZM445.28,1102.4h105.76l19.9-25.1-.94-3.43-62.91-231.46-5.98-22.06c-.11-.4-.05-.83.18-1.19l32.07-51.36,17.43-27.96h-105.21l8.15,13.06s.06.1.08.16l41.28,66.2c.22.35.28.79.17,1.19l-5.26,19.33s0,.02,0,.03c0,.02,0,.03-.01.05l-5.09,18.76-59.48,218.68,19.87,25.1Z" style="fill: #1c3759;"/>
        </g>
        <g style="mix-blend-mode: multiply; opacity: .25;">
          <path d="M572.59,1077.64l-20.82,26.26h-61.75c1.95-.91,3.69-2.16,5.13-3.79.36-.44.7-.87,1-1.34,3.37-4.94,3.6-11.53,3.67-17.59,0-1.99.02-3.98.02-5.96.19-44.17.36-88.33.61-132.43.09-23.61.17-47.22.27-70.75.04-6.78-.23-13.06-.44-19.14-.45-12.89-.68-24.86,2.5-38.68,2.48.17,4.3-7.71,6.87-5.58l-7.08,11.32,5.98,22.06,62.91,231.46,1.14,4.16Z" style="fill: #112f5b;"/>
        </g>
        <path d="M551.77,1105.4h-107.21c-.46,0-.89-.21-1.18-.57l-20.79-26.26c-.29-.37-.4-.86-.27-1.32l.44-1.63,59.24-217.79,5.07-18.67c.02-.09.04-.18.07-.26l5.06-18.6-41.02-65.78s-.06-.1-.08-.15l-9.5-15.22c-.29-.46-.3-1.04-.04-1.52s.77-.77,1.31-.77h110.62c.54,0,1.05.3,1.31.77.26.48.25,1.06-.04,1.52l-18.86,30.25-31.72,50.81,5.81,21.42,64.05,235.62c.12.46.02.95-.27,1.33l-20.83,26.26c-.28.36-.72.57-1.17.57ZM445.28,1102.4h105.76l19.9-25.1-.94-3.43-62.91-231.46-5.98-22.06c-.11-.4-.05-.83.18-1.19l32.07-51.36,17.43-27.96h-105.21l8.15,13.06s.06.1.08.16l41.28,66.2c.22.35.28.79.17,1.19l-5.26,19.33s0,.02,0,.03c0,.02,0,.03-.01.05l-5.09,18.76-59.48,218.68,19.87,25.1Z" style="fill: #1c3759;"/>
        <g>
          <path d="M959.65,1105.55H27c-14.6,0-26.26-12.19-25.46-26.69,10.19-185.61,125.12-345.27,286.09-420.21l209.33,402.58,209.57-402.7c67.25,38.13,152.4,109.81,195.47,173.78.85,1.25,1.68,2.52,2.52,3.79,46.7,70.56,75.75,153.71,80.59,242.76.8,14.5-10.87,26.69-25.46,26.69Z" style="fill: #e4e4e3;"/>
          <path d="M959.65,1107.05H27c-7.52,0-14.5-3-19.67-8.46-5.11-5.4-7.7-12.43-7.29-19.82,4.95-90.19,34.95-177.46,86.77-252.38,50.66-73.25,119.88-131.72,200.19-169.11l1.3-.61,208.66,401.3,208.96-401.53,1.35.77c63.22,35.84,150.83,107.21,195.97,174.25.85,1.25,1.69,2.52,2.53,3.8,48.17,72.78,76.13,156.98,80.84,243.5.4,7.38-2.19,14.42-7.29,19.82-5.16,5.45-12.15,8.46-19.67,8.46ZM286.96,660.61c-79.28,37.18-147.61,95.07-197.69,167.49C37.78,902.56,7.96,989.3,3.04,1078.93c-.36,6.55,1.94,12.8,6.48,17.59,4.59,4.85,10.8,7.52,17.49,7.52h932.65c6.69,0,12.9-2.67,17.49-7.52,4.54-4.79,6.84-11.04,6.48-17.59-4.68-85.99-32.46-169.68-80.34-242.01-.83-1.27-1.66-2.53-2.51-3.77-44.56-66.19-130.81-136.64-193.62-172.56l-210.19,403.88-209.99-403.86Z" style="fill: #1c3759;"/>
        </g>
        <g>
          <path d="M498.14,762.25l134.4,74.69,83.93-168.48-126.56-70.88" style="fill: #bceeff;"/>
          <path d="M632.54,838.45c-.25,0-.5-.06-.73-.19l-134.4-74.69c-.72-.4-.99-1.32-.58-2.04.4-.72,1.32-.98,2.04-.58l133.03,73.93,82.59-165.8-125.32-70.18c-.72-.4-.98-1.32-.58-2.04.4-.72,1.32-.98,2.04-.58l126.56,70.88c.7.39.97,1.26.61,1.98l-83.93,168.48c-.18.37-.51.64-.9.76-.15.04-.29.07-.44.07Z" style="fill: #1c3759;"/>
        </g>
        <g>
          <path d="M498.14,762.25l-134.39,74.69-77.46-177.9,120.07-61.46" style="fill: #bceeff;"/>
          <path d="M363.76,838.45c-.16,0-.32-.03-.48-.08-.4-.14-.72-.43-.89-.82l-77.46-177.9c-.32-.73-.01-1.57.69-1.93l120.07-61.46c.74-.38,1.64-.09,2.02.65s.09,1.64-.65,2.02l-118.82,60.82,76.23,175.09,132.94-73.89c.72-.4,1.64-.14,2.04.58.4.72.14,1.64-.58,2.04l-134.38,74.69c-.22.12-.48.19-.73.19Z" style="fill: #1c3759;"/>
        </g>
        <g>
          <path d="M565.35,601.37v90.2c0,32.72-21.31,60.4-50.85,69.86-.35.18-.62.27-.97.35-6.81,2.12-14.15,3.36-21.75,3.36-40.59,0-73.48-32.98-73.48-73.57v-90.2h147.06Z" style="fill: #ffbfaf;"/>
          <path d="M491.77,766.64c-41.35,0-74.98-33.68-74.98-75.07v-90.2c0-.83.67-1.5,1.5-1.5h147.06c.83,0,1.5.67,1.5,1.5v90.2c0,32.66-20.81,61.28-51.79,71.25-.44.21-.79.32-1.17.41-7.21,2.25-14.68,3.4-22.12,3.4ZM419.79,602.87v88.7c0,39.74,32.29,72.07,71.98,72.07,7.13,0,14.3-1.11,21.31-3.29.37-.09.52-.15.75-.26.07-.03.14-.06.21-.09,29.79-9.54,49.8-37.04,49.8-68.43v-88.7h-144.06Z" style="fill: #1c3759;"/>
        </g>
        <g style="mix-blend-mode: multiply; opacity: .4;">
          <path d="M565.35,660.71v30.86c0,32.72-21.31,60.4-50.85,69.86-1.33-16.45-3.8-35.46-11.94-50.05-10.35-18.66-33.25-36.52-84.27-44.13v-6.54c23.26,7.07,48.02,10.88,73.57,10.88,13.88,0,27.5-1.15,40.77-3.36,11.14-1.77,22.11-4.33,32.72-7.52Z" style="fill: #ffbfaf;"/>
        </g>
        <g>
          <g>
            <g>
              <path d="M354,954.22l-20.72-3.83c8.81-47.76,4.7-88.65-12.2-121.5-5.48-10.48-12.22-20.25-20.07-29.09-9.33-11.08-18.08-21.56-23.74-42.35-4.6-16.8-14.44-94.28,36.47-127.32,24.55-15.93,52.15-14.38,66.46-12.26-.77,4.44-1.81,8.82-3.11,13.13-.87,2.83-1.84,5.48-2.8,7.97-26.95-3.76-43.22,5.2-48.94,8.84-40.45,25.76-31.33,90.58-27.63,104.11,4.48,16.34,11.14,24.3,19.57,34.23,8.87,10.03,16.49,21.11,22.68,32.98,18.95,37.24,23.71,82.7,14.03,135.1h0Z" style="fill: #0079cf;"/>
              <path d="M355.2,955.97l-23.67-4.37.27-1.47c8.74-47.43,4.69-87.98-12.06-120.55-5.41-10.35-12.09-20.04-19.86-28.78-9.41-11.16-18.27-21.68-24.07-42.95-5.15-18.81-13.97-95.83,37.1-128.97,23.3-15.12,49.56-15.14,67.5-12.48l1.52.22-.26,1.52c-.78,4.48-1.84,8.96-3.15,13.31-.76,2.48-1.66,5.04-2.84,8.07l-.43,1.11-1.18-.17c-23.29-3.25-38.92,2.89-47.93,8.62-20.97,13.36-27.72,37.57-29.69,55.54-2.38,21.7,1.14,41.22,2.7,46.91,4.44,16.2,10.98,23.9,19.27,33.65,8.92,10.09,16.63,21.29,22.87,33.26,19.14,37.62,23.91,83.39,14.18,136.07l-.27,1.47ZM335.02,949.19l17.77,3.28c9.25-51.39,4.48-96.02-14.16-132.67-6.12-11.74-13.69-22.74-22.47-32.67-8.21-9.66-15.27-17.98-19.89-34.82-1.6-5.84-5.22-25.87-2.79-48.03,2.93-26.7,13.67-46.67,31.06-57.74,9.28-5.9,25.23-12.23,48.77-9.21.94-2.49,1.7-4.66,2.34-6.76,1.13-3.74,2.07-7.57,2.79-11.42-17.36-2.34-42.03-1.94-63.89,12.25-14.67,9.52-33.24,29.17-38.38,68.69-3.45,26.54.66,50.13,2.54,56.98,5.62,20.63,14.28,30.9,23.44,41.78,7.9,8.9,14.72,18.79,20.25,29.37,16.88,32.83,21.12,73.53,12.61,120.99Z" style="fill: #1c3759;"/>
            </g>
            <g>
              <circle cx="334.86" cy="980.42" r="57.1" style="fill: #ff5b91;"/>
              <path d="M334.86,1039.02c-32.31,0-58.6-26.29-58.6-58.6s26.29-58.6,58.6-58.6,58.6,26.29,58.6,58.6-26.29,58.6-58.6,58.6ZM334.86,924.83c-30.66,0-55.6,24.94-55.6,55.6s24.94,55.6,55.6,55.6,55.6-24.94,55.6-55.6-24.94-55.6-55.6-55.6Z" style="fill: #1c3759;"/>
            </g>
            <g>
              <circle cx="334.86" cy="980.42" r="41.57" style="fill: #ffac00;"/>
              <path d="M334.86,1023.49c-23.75,0-43.07-19.32-43.07-43.07s19.32-43.07,43.07-43.07,43.07,19.32,43.07,43.07-19.32,43.07-43.07,43.07ZM334.86,940.35c-22.09,0-40.07,17.97-40.07,40.07s17.97,40.07,40.07,40.07,40.07-17.97,40.07-40.07-17.97-40.07-40.07-40.07Z" style="fill: #1c3759;"/>
            </g>
          </g>
          <circle cx="295.56" cy="982.4" r="8.6" style="fill: #fff;"/>
          <circle cx="301.81" cy="1000.27" r="2.76" style="fill: #fff;"/>
        </g>
        <path d="M181.14,829.19c-1.11-8.08-11.01-15-19.86-15.54-18.99-1.14-33.33,27.15-40.17,40.65-11.94,23.57-18.18,52.5-12.66,54.96,4.69,2.09,11.4-16.93,38.57-43.06,21.1-20.3,35.57-26.47,34.12-37.02Z" style="fill: #fff;"/>
        <g style="mix-blend-mode: multiply; opacity: .4;">
          <path d="M959.65,1102.7H395.32c-29.67-.55-59.31-1.1-88.98-1.65,42.86-3.46,102.78-8.99,174.44-17.99,40.08-5.04,74.31-9.94,90.68-12.44,50.41-7.71,137.8-24.04,264.04-61.62,44.13-13.16,76.84-51.21,81.54-97.02.13-1.38.27-2.78.36-4.18,2.5-33.36-6.42-59.82-12.87-74.55,46.7,70.56,75.75,153.71,80.59,242.76.8,14.5-10.87,26.69-25.46,26.69Z" style="fill: #a6a8ab;"/>
        </g>
        <g>
          <g>
            <path d="M694.89,957.64l-16.76-10.34c72.71-108.69,78.01-223.65,21.09-281.25-11.78-11.97-33.84-29.03-73.33-37.74-.69-.75-1.29-1.57-1.8-2.44-1.07-1.9-1.71-4-1.88-6.15-.59-4.78-.88-8.96-1.03-11.83,51.95,9.47,79.51,31.95,92.53,45.1,63.41,64.01,60.22,189.45-18.82,304.66Z" style="fill: #0079cf;"/>
            <path d="M695.32,959.67l-19.3-11.91.87-1.29c35.1-52.47,55.47-107.47,58.91-159.05,3.31-49.68-10.06-92.4-37.64-120.31-17.78-18.07-42.2-30.63-72.59-37.33l-.46-.1-.32-.35c-.76-.83-1.43-1.74-1.99-2.71-1.19-2.12-1.89-4.4-2.08-6.78-.6-4.84-.89-9.14-1.03-11.88l-.1-1.89,1.86.34c39.08,7.12,70.48,22.44,93.33,45.52,31.46,31.76,47.24,79.45,44.44,134.26-2.91,56.8-24.72,116.38-63.09,172.3l-.81,1.18ZM680.24,946.84l14.22,8.77c37.55-55.12,58.9-113.73,61.76-169.58,2.76-53.96-12.72-100.84-43.58-132-22.04-22.27-52.26-37.18-89.86-44.33.17,2.6.44,6.02.91,9.82.17,2.01.74,3.88,1.71,5.6.37.63.8,1.25,1.29,1.82,30.74,6.86,55.5,19.65,73.6,38.05,28.19,28.53,41.86,72.08,38.5,122.62-3.44,51.68-23.68,106.71-58.54,159.22Z" style="fill: #1c3759;"/>
          </g>
          <g>
            <path d="M666.01,1169.68c-7.45.03-14.83-1.44-21.7-4.3-4.41-2.09-6.29-7.36-4.2-11.77,1.99-4.21,6.91-6.15,11.24-4.43,1.09.47,22.71,9.34,37.02-6.74,4.95-10.93,46.21-104.93,23.32-155.58-6.21-14.11-18.61-24.54-33.57-28.24-85.93-24.77-132.52,129.99-133.05,131.55-.04.15-.09.3-.15.44-3.53,10.1,15.58,26.83,29.63,34.93,4.23,2.44,5.68,7.85,3.24,12.07-2.44,4.23-7.85,5.68-12.07,3.24-4.86-2.94-47.12-28.07-37.52-55.95,8.95-28.49,21.43-55.75,37.17-81.13,33.81-53.01,74.51-74.65,117.65-62.2,19.95,5.12,36.45,19.1,44.79,37.93,27.56,61.02-21.82,166.98-23.94,171.46-.31.67-.71,1.29-1.18,1.86-8.99,10.95-22.5,17.17-36.66,16.87h0Z" style="fill: #0079cf;"/>
            <path d="M666.99,1171.19c-.33,0-.66,0-.99,0-7.65,0-15.17-1.46-22.27-4.42-5.22-2.47-7.42-8.64-4.98-13.79,2.32-4.91,8.1-7.18,13.15-5.18.27.12,5.78,2.47,13.05,2.73,9.08.31,16.51-2.67,22.14-8.91,5.19-11.51,45.69-104.42,23.23-154.14-5.99-13.6-18.16-23.84-32.57-27.4-80.52-23.2-126.23,114.49-131.17,130.26l-.08.24c-.05.2-.11.39-.19.58-1.33,3.92,1.47,9.82,7.91,16.64,5.49,5.81,13.56,12.11,21.06,16.44,4.94,2.85,6.64,9.19,3.79,14.12-2.85,4.94-9.18,6.64-14.12,3.79l-.23-.14c-14.38-8.7-46.86-31.72-37.95-57.6,8.96-28.55,21.52-55.96,37.31-81.44,34.29-53.76,75.55-75.49,119.34-62.85,20.48,5.26,37.17,19.39,45.75,38.77,27.93,61.83-21.83,168.21-23.96,172.71-.36.78-.83,1.51-1.38,2.17-9.12,11.11-22.5,17.42-36.84,17.42ZM666.02,1168.18h.02c13.78.29,26.72-5.67,35.47-16.33.39-.47.72-.99.98-1.54,2.11-4.46,51.3-109.62,23.94-170.2-8.21-18.54-24.17-32.06-43.8-37.1-42.42-12.25-82.52,9.04-116.01,61.55-15.65,25.24-28.1,52.42-37,80.78-8.44,24.52,25.92,47.6,36.66,54.1l.21.13c3.48,2.01,7.97.8,10-2.71,2.02-3.5.81-8-2.69-10.03-11.71-6.75-34.53-24.61-30.29-36.72l.04-.11c.03-.06.05-.12.06-.19l.12-.38c5.04-16.06,51.63-156.24,134.81-132.26,15.25,3.77,28.18,14.65,34.53,29.08,23.14,51.22-18.51,146.15-23.33,156.81l-.09.21-.15.17c-15.17,17.05-37.78,7.54-38.73,7.12-3.54-1.4-7.64.21-9.29,3.7-1.73,3.66-.17,8.04,3.49,9.77,6.6,2.75,13.65,4.16,20.87,4.16h.21Z" style="fill: #1c3759;"/>
          </g>
          <g>
            <circle cx="572.48" cy="1132.02" r="17.46" style="fill: #ffac00;"/>
            <path d="M572.48,1150.98c-10.46,0-18.96-8.51-18.96-18.96s8.51-18.96,18.96-18.96,18.96,8.51,18.96,18.96-8.51,18.96-18.96,18.96ZM572.48,1116.05c-8.8,0-15.96,7.16-15.96,15.96s7.16,15.96,15.96,15.96,15.96-7.16,15.96-15.96-7.16-15.96-15.96-15.96Z" style="fill: #1c3759;"/>
          </g>
          <g>
            <circle cx="641.74" cy="1153.63" r="17.46" style="fill: #ffac00;"/>
            <path d="M641.74,1172.6c-10.46,0-18.96-8.51-18.96-18.96s8.51-18.96,18.96-18.96,18.96,8.51,18.96,18.96-8.51,18.96-18.96,18.96ZM641.74,1137.67c-8.8,0-15.96,7.16-15.96,15.96s7.16,15.96,15.96,15.96,15.96-7.16,15.96-15.96-7.16-15.96-15.96-15.96Z" style="fill: #1c3759;"/>
          </g>
        </g>
        <circle cx="578.04" cy="1130.29" r="2.76" style="fill: #fff;"/>
        <path d="M641.73,1172.59c-7.43,0-14.22-4.38-17.29-11.16-1.09-2.41-1.67-5.11-1.67-7.79,0-10.45,8.5-18.95,18.96-18.95s18.97,8.5,18.97,18.95c0,2.78-.58,5.43-1.71,7.87-3.07,6.73-9.85,11.09-17.26,11.09ZM641.73,1137.68c-8.8,0-15.96,7.16-15.96,15.95,0,2.26.48,4.53,1.4,6.56,2.59,5.71,8.3,9.4,14.55,9.4s11.95-3.67,14.54-9.34c.96-2.05,1.44-4.27,1.44-6.61,0-8.8-7.17-15.95-15.97-15.95Z" style="fill: #1c3759;"/>
        <g style="mix-blend-mode: multiply; opacity: .25;">
          <path d="M738.44,844.23c-4.31,15.95-9.14,28.71-18.81,54.23-7.96,21-15.02,38.2-20.05,50.14,15.04-21.42,37.18-58.77,48.41-110.14,9.59-43.87,7.57-81.24,4.31-105.58-7.67-21.93-15.86-45.28-15.94-45.25-.04.01,1.81,5.46,2.15,6.46,4.11,12.17,12.44,43.98,10.77,84.89-1.18,28.9-6.86,50.46-10.85,65.23Z" style="fill: #112f5b;"/>
        </g>
        <path d="M695.32,959.67l-19.3-11.91.87-1.29c35.1-52.47,55.47-107.47,58.91-159.05,3.31-49.68-10.06-92.4-37.64-120.31-17.78-18.07-42.2-30.63-72.59-37.33l-.46-.1-.32-.35c-.76-.83-1.43-1.74-1.99-2.71-1.19-2.12-1.89-4.4-2.08-6.78-.6-4.84-.89-9.14-1.03-11.88l-.1-1.89,1.86.34c39.08,7.12,70.48,22.44,93.33,45.52,31.46,31.76,47.24,79.45,44.44,134.26-2.91,56.8-24.72,116.38-63.09,172.3l-.81,1.18ZM680.24,946.84l14.22,8.77c37.55-55.12,58.9-113.73,61.76-169.58,2.76-53.96-12.72-100.84-43.58-132-22.04-22.27-52.26-37.18-89.86-44.33.17,2.6.44,6.02.91,9.82.17,2.01.74,3.88,1.71,5.6.37.63.8,1.25,1.29,1.82,30.74,6.86,55.5,19.65,73.6,38.05,28.19,28.53,41.86,72.08,38.5,122.62-3.44,51.68-23.68,106.71-58.54,159.22Z" style="fill: #1c3759;"/>
        <g>
          <path d="M666.01,1169.68c-7.45.03-14.83-1.44-21.7-4.3-4.41-2.09-6.29-7.36-4.2-11.77,1.99-4.21,6.91-6.15,11.24-4.43.14.06.59.25,1.32.51,16.14,5.71,33.95-2.43,40.43-18.29,11.74-28.74,37.84-101.96,18.6-144.55-6.21-14.11-18.61-24.54-33.57-28.24-85.93-24.77-132.52,129.99-133.05,131.55-.04.15-.09.3-.15.44-3.51,10.03,15.32,26.6,29.34,34.76,3.95,2.3,5.82,7.21,3.96,11.39-2.17,4.88-8.01,6.69-12.51,4.09-4.86-2.94-47.12-28.07-37.52-55.95,8.95-28.49,21.43-55.75,37.17-81.13,33.81-53.01,74.51-74.65,117.65-62.2,19.95,5.12,36.45,19.1,44.79,37.93,27.56,61.02-21.82,166.98-23.94,171.46-.31.67-.71,1.29-1.18,1.86-8.99,10.95-22.5,17.17-36.66,16.87h0Z" style="fill: #0079cf;"/>
          <path d="M666.99,1171.19c-.33,0-.66,0-.99,0-7.65,0-15.17-1.46-22.27-4.42-5.22-2.47-7.42-8.64-4.98-13.79,2.32-4.91,8.1-7.18,13.15-5.18.17.07.59.25,1.26.49,15.39,5.45,32.32-2.21,38.54-17.44,5.35-13.08,15.16-39.16,20.84-66.82,6.71-32.69,5.96-58.44-2.21-76.54-5.99-13.6-18.16-23.84-32.57-27.4-80.52-23.2-126.23,114.49-131.17,130.26l-.08.24c-.05.2-.11.39-.19.58-3.01,8.83,14.71,24.79,28.7,32.93,4.75,2.76,6.72,8.48,4.57,13.29-1.2,2.69-3.48,4.75-6.26,5.66-2.78.9-5.83.59-8.37-.88l-.23-.14c-14.38-8.7-46.86-31.72-37.95-57.6,8.96-28.55,21.52-55.96,37.31-81.44,34.29-53.76,75.55-75.49,119.34-62.85,20.48,5.26,37.17,19.39,45.75,38.77,27.93,61.83-21.83,168.21-23.96,172.71-.36.78-.83,1.51-1.38,2.17-9.12,11.11-22.5,17.42-36.84,17.42ZM666.02,1168.18h.02c13.78.29,26.72-5.67,35.47-16.33.39-.47.72-.99.98-1.54,2.11-4.46,51.3-109.62,23.94-170.2-8.21-18.54-24.17-32.06-43.8-37.1-42.42-12.25-82.52,9.04-116.01,61.55-15.65,25.24-28.1,52.42-37,80.78-8.44,24.52,25.92,47.6,36.66,54.1l.21.13c1.77,1.02,3.93,1.25,5.91.61,2-.65,3.58-2.08,4.45-4.02,1.5-3.36.03-7.52-3.34-9.48-14.76-8.59-33.83-25.61-30-36.55l.04-.11c.03-.06.05-.12.06-.19l.12-.38c5.04-16.06,51.63-156.24,134.81-132.26,15.25,3.77,28.18,14.65,34.53,29.08,19.41,42.96-6.53,116.22-18.58,145.72-6.83,16.71-25.42,25.12-42.32,19.13-.77-.27-1.26-.48-1.41-.54-3.55-1.41-7.64.21-9.29,3.69-1.73,3.66-.17,8.04,3.49,9.77,6.6,2.75,13.65,4.16,20.87,4.16h.21Z" style="fill: #1c3759;"/>
        </g>
        <g>
          <path d="M659.21,1153.63c0,2.57-.55,5.04-1.57,7.23-2.75,6.02-8.82,10.22-15.9,10.22s-13.18-4.22-15.92-10.28c-.98-2.18-1.53-4.62-1.53-7.17,0-9.66,7.82-17.45,17.45-17.45s17.47,7.8,17.47,17.45Z" style="fill: #ffac00;"/>
          <path d="M641.73,1172.59c-7.43,0-14.22-4.38-17.29-11.16-1.09-2.41-1.67-5.11-1.67-7.79,0-10.45,8.5-18.95,18.96-18.95s18.97,8.5,18.97,18.95c0,2.78-.58,5.43-1.71,7.87-3.07,6.73-9.85,11.09-17.26,11.09ZM641.73,1137.68c-8.8,0-15.96,7.16-15.96,15.95,0,2.26.48,4.53,1.4,6.56,2.59,5.71,8.3,9.4,14.55,9.4s11.95-3.67,14.54-9.34c.96-2.05,1.44-4.27,1.44-6.61,0-8.8-7.17-15.95-15.97-15.95Z" style="fill: #1c3759;"/>
        </g>
        <g style="mix-blend-mode: multiply; opacity: .17;">
          <path d="M657.64,1160.86c-2.75,6.02-8.82,10.22-15.9,10.22s-13.18-4.22-15.92-10.28c-.06-1.12.02-2.23.19-3.33,3.48,1.67,7.27,2.69,11.11,2.99,1.99.15,4.05.09,5.89-.7,3.69-1.61,5.55-6.02,5.38-10.07-.15-3.65-2.04-6.97-2.71-10.3,4.66,2.16,9.48,6.27,11.55,11.07,1.4,3.28,1.46,6.99.42,10.39Z" style="fill: #ff6a07;"/>
        </g>
        <g>
          <g>
            <g>
              <path d="M589.85,1132.02c0,2.57-.55,5.04-1.57,7.23-2.75,6.02-8.82,10.22-15.9,10.22s-13.18-4.22-15.92-10.28c-.98-2.18-1.53-4.62-1.53-7.17,0-9.66,7.82-17.45,17.45-17.45s17.47,7.8,17.47,17.45Z" style="fill: #ffac00;"/>
              <path d="M572.38,1150.98c-7.43,0-14.21-4.38-17.29-11.16-1.09-2.41-1.67-5.11-1.67-7.79,0-10.45,8.5-18.96,18.96-18.96s18.97,8.5,18.97,18.96c0,2.78-.58,5.43-1.71,7.87-3.07,6.73-9.85,11.09-17.26,11.09ZM572.38,1116.07c-8.8,0-15.96,7.16-15.96,15.96,0,2.26.48,4.53,1.4,6.56,2.59,5.71,8.3,9.4,14.55,9.4s11.95-3.67,14.54-9.34c.96-2.05,1.44-4.27,1.44-6.61,0-8.8-7.17-15.96-15.97-15.96Z" style="fill: #1c3759;"/>
            </g>
            <g style="mix-blend-mode: multiply; opacity: .17;">
              <path d="M588.28,1139.26c-2.75,6.02-8.82,10.22-15.9,10.22s-13.18-4.22-15.92-10.28c-.06-1.12.02-2.23.19-3.33,3.48,1.67,7.27,2.69,11.11,2.99,1.99.15,4.05.09,5.89-.7,3.69-1.61,5.55-6.02,5.38-10.07-.15-3.65-2.04-6.97-2.71-10.3,4.66,2.16,9.48,6.27,11.55,11.07,1.4,3.28,1.46,6.99.42,10.39Z" style="fill: #ff6a07;"/>
            </g>
            <path d="M572.38,1150.98c-7.43,0-14.21-4.38-17.29-11.16-1.09-2.41-1.67-5.11-1.67-7.79,0-10.45,8.5-18.96,18.96-18.96s18.97,8.5,18.97,18.96c0,2.78-.58,5.43-1.71,7.87-3.07,6.73-9.85,11.09-17.26,11.09ZM572.38,1116.07c-8.8,0-15.96,7.16-15.96,15.96,0,2.26.48,4.53,1.4,6.56,2.59,5.71,8.3,9.4,14.55,9.4s11.95-3.67,14.54-9.34c.96-2.05,1.44-4.27,1.44-6.61,0-8.8-7.17-15.96-15.97-15.96Z" style="fill: #1c3759;"/>
          </g>
          <circle cx="568.82" cy="1126.75" r="2.4" style="fill: #fff;"/>
        </g>
        <g>
          <path d="M693.48,453.52c0,34.04,24.86,62.26,57.41,67.49,3.56.58,7.22.88,10.95.88,37.76,0,68.36-30.6,68.36-68.36s-30.6-68.36-68.36-68.36c-3.74,0-7.4.3-10.95.88-32.55,5.24-57.41,33.46-57.41,67.49Z" style="fill: #ffbfaf;"/>
          <path d="M761.84,523.39c-3.76,0-7.53-.3-11.19-.9-16.2-2.6-31.05-10.93-41.81-23.44-10.87-12.65-16.86-28.82-16.86-45.52s5.99-32.87,16.86-45.52c10.76-12.51,25.61-20.84,41.81-23.45,3.66-.59,7.43-.9,11.19-.9,38.52,0,69.86,31.34,69.86,69.86s-31.34,69.86-69.86,69.86ZM761.84,386.66c-3.6,0-7.21.29-10.71.86-15.51,2.5-29.72,10.47-40.01,22.45-10.41,12.1-16.14,27.57-16.14,43.56s5.73,31.46,16.14,43.57c10.29,11.98,24.5,19.95,40.01,22.44,3.51.57,7.11.86,10.72.86,36.87,0,66.86-30,66.86-66.86s-30-66.86-66.86-66.86Z" style="fill: #1c3759;"/>
        </g>
        <g style="mix-blend-mode: multiply; opacity: .4;">
          <path d="M761.84,429.1c-1.08,0-2.11.18-3.15.32-1.4-14.85-3.95-29.37-7.8-43.38-32.55,5.24-57.41,33.46-57.41,67.49s24.86,62.25,57.41,67.49c3.86-14,6.4-28.52,7.8-43.37,1.04.14,2.07.32,3.15.32,13.49,0,24.44-10.94,24.44-24.44s-10.94-24.42-24.44-24.42Z" style="fill: #ffbfaf;"/>
        </g>
        <g>
          <path d="M246.27,386.03c-3.56-.58-7.22-.88-10.95-.88-37.76,0-68.36,30.6-68.36,68.36,0,37.76,30.6,68.36,68.36,68.36,3.74,0,7.4-.3,10.95-.88,32.55-5.23,57.41-33.45,57.41-67.49,0-34.03-24.86-62.24-57.41-67.49Z" style="fill: #ffbfaf;"/>
          <path d="M235.32,523.39c-38.52,0-69.87-31.34-69.87-69.86s31.34-69.86,69.87-69.86c3.76,0,7.53.3,11.19.9,16.2,2.61,31.05,10.94,41.81,23.45,10.87,12.65,16.86,28.81,16.86,45.52s-5.99,32.88-16.86,45.52c-10.76,12.51-25.61,20.84-41.81,23.45-3.67.59-7.43.9-11.19.9ZM235.32,386.66c-36.87,0-66.87,30-66.87,66.86s30,66.86,66.87,66.86c3.6,0,7.21-.29,10.71-.86,15.51-2.49,29.72-10.46,40.01-22.44,10.41-12.1,16.14-27.58,16.14-43.57s-5.73-31.46-16.14-43.56c-10.29-11.98-24.51-19.95-40.01-22.45t0,0c-3.51-.57-7.11-.86-10.71-.86Z" style="fill: #1c3759;"/>
        </g>
        <g style="mix-blend-mode: multiply; opacity: .4;">
          <path d="M232.65,383.78c-3.74,13.59-8.96,32.62-1.41,45.45-13.17.73-27.72,12.37-27.72,25.43s14.38,22.46,27.49,23.16c1.37,15.19,3.96,30.03,7.9,44.33,32.55-5.23,57.41-33.45,57.41-67.49s-31.12-65.64-63.67-70.89Z" style="fill: #ffbfaf;"/>
        </g>
        <g>
          <path d="M746.18,417.17c0,114.96-76.22,212.05-180.84,243.53-10.61,3.18-21.58,5.75-32.72,7.52-13.26,2.21-26.88,3.36-40.77,3.36-25.56,0-50.32-3.8-73.57-10.88-4.69-1.33-9.28-2.92-13.79-4.6-97.45-35.55-167.04-129.1-167.04-238.93,0-66.5,23.08-166.24,64.82-211.52,46.51-50.49,115.49-42.8,189.59-42.8,13.88,0,27.5,1.06,40.77,3.27.18,0,.35.09.62.09,6.28,1.06,12.56,2.3,18.75,3.8.71.18,1.41.35,2.21.53,6.01,1.5,11.85,3.27,17.69,5.22.97.35,1.95.62,2.83.97,5.75,1.95,11.32,4.07,16.8,6.46.97.44,1.95.8,3.01,1.24,5.39,2.39,10.7,5.04,15.92,7.78.97.44,1.86.97,2.83,1.5,5.22,2.83,10.35,5.84,15.3,9.02.8.53,1.59,1.06,2.39,1.59,5.13,3.27,10.08,6.81,14.86,10.43.62.44,1.15.88,1.68,1.33,5.04,3.89,9.82,7.87,14.5,12.12.27.18.44.35.62.53,4.69,4.24,9.28,8.75,13.62,13.35.27.26.53.53.8.8,3.45,3.54,6.72,7.25,9.82,11.14.88.97,1.77,1.95,2.56,3.01.44.53.88,1.15,1.33,1.68,3.8,4.78,7.43,9.64,10.88,14.68.44.71.97,1.5,1.5,2.21,3.36,4.95,6.54,10.08,9.46,15.3.53.88.97,1.68,1.5,2.56,2.92,5.22,5.66,10.52,8.22,16.01.35.88.71,1.77,1.15,2.56,2.48,5.57,4.86,11.23,6.99,16.98.27.8.53,1.5.8,2.3,2.12,5.93,4.16,12.03,5.84,18.13.09.44.18.88.35,1.33,1.68,6.46,3.18,12.91,4.42,19.45,0,.18.09.27.09.44,1.24,6.54,2.12,13.18,2.83,19.98,0,.35.09.8.18,1.15,0,.26,0,.53.09.88.27,2.74.44,5.57.62,8.4.09,1.24.18,2.56.27,3.8.18,4.07.27,8.13.27,12.29Z" style="fill: #ffbfaf;"/>
          <path d="M491.86,673.08c-25.24,0-50.14-3.68-74.01-10.94-4.13-1.17-8.55-2.64-13.88-4.63-48.75-17.79-90.52-49.65-120.76-92.15-30.91-43.44-47.25-94.68-47.25-148.19,0-69.7,24.39-168.26,65.21-212.54,41.47-45.02,101.32-44.28,164.7-43.5,8.48.1,17.25.21,26,.21,14.07,0,27.84,1.1,40.93,3.28.17.01.31.05.42.07.08,0,.21.02.29.04,6.85,1.16,13.01,2.41,18.85,3.82.73.18,1.42.35,2.18.52,5.56,1.39,11.38,3.11,17.83,5.26.44.16.84.29,1.23.42.58.19,1.15.37,1.68.59,5.94,2.01,11.47,4.13,16.84,6.47.61.28,1.2.51,1.81.76.38.15.77.31,1.17.47,4.86,2.15,9.95,4.64,16.04,7.84.69.31,1.41.71,2.1,1.1l.75.41c5.4,2.93,10.58,5.98,15.39,9.08l2.41,1.61c4.69,2.99,9.59,6.43,14.93,10.49.63.45,1.19.91,1.73,1.36,5.09,3.93,9.84,7.9,14.48,12.09.34.24.57.47.75.65,4.66,4.22,9.27,8.74,13.65,13.38l.76.76c3.48,3.57,6.82,7.36,9.93,11.27.84.92,1.76,1.93,2.59,3.04.19.22.42.53.66.83.21.27.41.54.62.79,4.02,5.05,7.6,9.88,10.96,14.79.51.81,1.01,1.56,1.46,2.16,3.48,5.13,6.69,10.31,9.57,15.47.24.4.49.82.73,1.25.24.42.48.84.75,1.28,3.07,5.5,5.78,10.76,8.3,16.14.38.94.71,1.76,1.1,2.47.02.04.04.08.06.12,2.9,6.53,5.13,11.95,7.02,17.07.15.44.28.8.41,1.17.13.38.27.77.41,1.17,2.5,6.96,4.36,12.76,5.86,18.21,0,.03.02.07.02.1.08.39.15.75.28,1.07.02.06.04.12.06.18,1.84,7.05,3.29,13.45,4.44,19.55,0,.03.01.06.01.09.03.11.07.26.09.45,1.12,5.97,2.05,12.52,2.83,20.02,0,.05,0,.1,0,.15,0,.06,0,.3.13.79.03.12.04.24.04.37,0,.22,0,.35.04.52.02.07.03.14.04.22.27,2.77.45,5.65.62,8.45l.26,3.8c.18,4.15.27,8.19.27,12.4,0,56.09-17.81,109.34-51.49,153.97-32.58,43.18-78.9,75.49-130.41,91-10.97,3.29-22.04,5.84-32.92,7.56-13.45,2.24-27.25,3.38-41,3.38ZM440.92,163.93c-22.98,0-44.85.81-65.22,4.69-30.84,5.87-53.82,17.96-72.32,38.04-31.67,34.35-64.42,122.48-64.42,210.5,0,52.88,16.15,103.52,46.7,146.45,29.89,42,71.16,73.49,119.35,91.07,5.27,1.96,9.61,3.41,13.69,4.56,23.61,7.18,48.22,10.82,73.16,10.82,13.59,0,27.22-1.12,40.52-3.34,10.75-1.71,21.7-4.22,32.53-7.47,50.91-15.32,96.68-47.26,128.88-89.93,33.29-44.11,50.89-96.73,50.89-152.17,0-4.16-.09-8.16-.26-12.23l-.26-3.76c-.17-2.75-.35-5.58-.61-8.26-.08-.38-.1-.69-.1-.94-.11-.47-.17-.89-.18-1.24-.77-7.43-1.69-13.9-2.8-19.79,0-.03-.01-.06-.01-.09-.04-.11-.08-.26-.09-.45-1.13-5.99-2.56-12.26-4.36-19.18-.2-.51-.3-1-.38-1.44-1.48-5.36-3.32-11.07-5.79-17.97-.14-.42-.27-.79-.4-1.15-.14-.38-.27-.77-.41-1.18-1.84-4.99-4.04-10.34-6.91-16.78-.47-.86-.84-1.78-1.2-2.68-2.45-5.23-5.13-10.44-8.14-15.83-.25-.41-.5-.85-.75-1.28-.24-.41-.47-.82-.73-1.25-2.86-5.12-6.02-10.23-9.42-15.23-.6-.8-1.17-1.67-1.53-2.26-3.28-4.79-6.82-9.57-10.78-14.54-.21-.25-.44-.55-.67-.85-.21-.28-.42-.55-.63-.8-.8-1.06-1.63-1.98-2.51-2.94-.02-.02-.06-.07-.08-.09-3.05-3.83-6.32-7.54-9.72-11.03l-.78-.78c-4.35-4.62-8.91-9.08-13.57-13.3-.21-.21-.31-.3-.45-.39-.06-.04-.12-.09-.17-.14-4.6-4.17-9.31-8.1-14.41-12.04-.57-.47-1.06-.88-1.63-1.29-5.31-4.03-10.14-7.43-14.79-10.39l-2.41-1.61c-4.73-3.04-9.84-6.05-15.18-8.95l-.78-.43c-.67-.37-1.3-.73-1.96-1.03-6.11-3.21-11.13-5.67-15.9-7.78-.36-.15-.73-.3-1.1-.44-.66-.26-1.29-.51-1.92-.8-5.27-2.3-10.73-4.39-16.66-6.4-.55-.22-1.06-.38-1.57-.55-.42-.14-.86-.28-1.29-.44-6.34-2.11-12.09-3.81-17.54-5.17-.76-.17-1.46-.34-2.17-.52-5.77-1.4-11.84-2.63-18.58-3.77-.24-.01-.43-.06-.55-.08,0,0,.03,0,.08,0-.08,0-.16,0-.24-.02-12.95-2.16-26.58-3.25-40.52-3.25-8.76,0-17.54-.11-26.03-.21-8.43-.1-16.74-.21-24.91-.21ZM740.44,370.66h0s0,0,0,0ZM743.35,370.21h0s0,0,0,0Z" style="fill: #1c3759;"/>
        </g>
        <g style="mix-blend-mode: multiply; opacity: .4;">
          <path d="M746.18,417.17c0,114.96-76.22,212.05-180.84,243.53-10.61,3.18-21.58,5.75-32.72,7.52-13.26,2.21-26.88,3.36-40.77,3.36-25.56,0-50.32-3.8-73.57-10.88-4.69-1.33-9.28-2.92-13.79-4.6,4.6-1.15,9.2-2.48,13.79-3.89,13.44-4.07,26.71-8.93,39.62-14.59,14.86-6.46,39.88-17.51,66.94-36.26,22.11-15.39,45.54-35.9,65.97-63.14,0,0,71.1-94.97,96.03-284.21.88.97,1.77,1.95,2.56,3.01.44.53.88,1.15,1.33,1.68,3.8,4.78,7.43,9.64,10.88,14.68.44.71.97,1.5,1.5,2.21,3.36,4.95,6.54,10.08,9.46,15.3.53.88.97,1.68,1.5,2.56,2.92,5.22,5.66,10.52,8.22,16.01.35.88.71,1.77,1.15,2.56,2.48,5.57,4.86,11.23,6.99,16.98.27.8.53,1.5.8,2.3,2.12,5.93,4.16,12.03,5.84,18.13.09.44.18.88.35,1.33,1.68,6.46,3.18,12.91,4.42,19.45,0,.18.09.27.09.44,1.24,6.54,2.12,13.18,2.83,19.98,0,.35.09.8.18,1.15,0,.26,0,.53.09.88.27,2.74.44,5.57.62,8.4.09,1.24.18,2.56.27,3.8.18,4.07.27,8.13.27,12.29Z" style="fill: #ffbfaf;"/>
        </g>
        <path d="M491.86,673.08c-25.24,0-50.14-3.68-74.01-10.94-4.13-1.17-8.55-2.64-13.88-4.63-48.75-17.79-90.52-49.65-120.76-92.15-30.91-43.44-47.25-94.68-47.25-148.19,0-69.7,24.39-168.26,65.21-212.54,41.47-45.02,101.32-44.28,164.7-43.5,8.48.1,17.25.21,26,.21,14.07,0,27.84,1.1,40.93,3.28.17.01.31.05.42.07.08,0,.21.02.29.04,6.85,1.16,13.01,2.41,18.85,3.82.73.18,1.42.35,2.18.52,5.56,1.39,11.38,3.11,17.83,5.26.44.16.84.29,1.23.42.58.19,1.15.37,1.68.59,5.94,2.01,11.47,4.13,16.84,6.47.61.28,1.2.51,1.81.76.38.15.77.31,1.17.47,4.86,2.15,9.95,4.64,16.04,7.84.69.31,1.41.71,2.1,1.1l.75.41c5.4,2.93,10.58,5.98,15.39,9.08l2.41,1.61c4.69,2.99,9.59,6.43,14.93,10.49.63.45,1.19.91,1.73,1.36,5.09,3.93,9.84,7.9,14.48,12.09.34.24.57.47.75.65,4.66,4.22,9.27,8.74,13.65,13.38l.76.76c3.48,3.57,6.82,7.36,9.93,11.27.84.92,1.76,1.93,2.59,3.04.19.22.42.53.66.83.21.27.41.54.62.79,4.02,5.05,7.6,9.88,10.96,14.79.51.81,1.01,1.56,1.46,2.16,3.48,5.13,6.69,10.31,9.57,15.47.24.4.49.82.73,1.25.24.42.48.84.75,1.28,3.07,5.5,5.78,10.76,8.3,16.14.38.94.71,1.76,1.1,2.47.02.04.04.08.06.12,2.9,6.53,5.13,11.95,7.02,17.07.15.44.28.8.41,1.17.13.38.27.77.41,1.17,2.5,6.96,4.36,12.76,5.86,18.21,0,.03.02.07.02.1.08.39.15.75.28,1.07.02.06.04.12.06.18,1.84,7.05,3.29,13.45,4.44,19.55,0,.03.01.06.01.09.03.11.07.26.09.45,1.12,5.97,2.05,12.52,2.83,20.02,0,.05,0,.1,0,.15,0,.06,0,.3.13.79.03.12.04.24.04.37,0,.22,0,.35.04.52.02.07.03.14.04.22.27,2.77.45,5.65.62,8.45l.26,3.8c.18,4.15.27,8.19.27,12.4,0,56.09-17.81,109.34-51.49,153.97-32.58,43.18-78.9,75.49-130.41,91-10.97,3.29-22.04,5.84-32.92,7.56-13.45,2.24-27.25,3.38-41,3.38ZM440.92,163.93c-22.98,0-44.85.81-65.22,4.69-30.84,5.87-53.82,17.96-72.32,38.04-31.67,34.35-64.42,122.48-64.42,210.5,0,52.88,16.15,103.52,46.7,146.45,29.89,42,71.16,73.49,119.35,91.07,5.27,1.96,9.61,3.41,13.69,4.56,23.61,7.18,48.22,10.82,73.16,10.82,13.59,0,27.22-1.12,40.52-3.34,10.75-1.71,21.7-4.22,32.53-7.47,50.91-15.32,96.68-47.26,128.88-89.93,33.29-44.11,50.89-96.73,50.89-152.17,0-4.16-.09-8.16-.26-12.23l-.26-3.76c-.17-2.75-.35-5.58-.61-8.26-.08-.38-.1-.69-.1-.94-.11-.47-.17-.89-.18-1.24-.77-7.43-1.69-13.9-2.8-19.79,0-.03-.01-.06-.01-.09-.04-.11-.08-.26-.09-.45-1.13-5.99-2.56-12.26-4.36-19.18-.2-.51-.3-1-.38-1.44-1.48-5.36-3.32-11.07-5.79-17.97-.14-.42-.27-.79-.4-1.15-.14-.38-.27-.77-.41-1.18-1.84-4.99-4.04-10.34-6.91-16.78-.47-.86-.84-1.78-1.2-2.68-2.45-5.23-5.13-10.44-8.14-15.83-.25-.41-.5-.85-.75-1.28-.24-.41-.47-.82-.73-1.25-2.86-5.12-6.02-10.23-9.42-15.23-.6-.8-1.17-1.67-1.53-2.26-3.28-4.79-6.82-9.57-10.78-14.54-.21-.25-.44-.55-.67-.85-.21-.28-.42-.55-.63-.8-.8-1.06-1.63-1.98-2.51-2.94-.02-.02-.06-.07-.08-.09-3.05-3.83-6.32-7.54-9.72-11.03l-.78-.78c-4.35-4.62-8.91-9.08-13.57-13.3-.21-.21-.31-.3-.45-.39-.06-.04-.12-.09-.17-.14-4.6-4.17-9.31-8.1-14.41-12.04-.57-.47-1.06-.88-1.63-1.29-5.31-4.03-10.14-7.43-14.79-10.39l-2.41-1.61c-4.73-3.04-9.84-6.05-15.18-8.95l-.78-.43c-.67-.37-1.3-.73-1.96-1.03-6.11-3.21-11.13-5.67-15.9-7.78-.36-.15-.73-.3-1.1-.44-.66-.26-1.29-.51-1.92-.8-5.27-2.3-10.73-4.39-16.66-6.4-.55-.22-1.06-.38-1.57-.55-.42-.14-.86-.28-1.29-.44-6.34-2.11-12.09-3.81-17.54-5.17-.76-.17-1.46-.34-2.17-.52-5.77-1.4-11.84-2.63-18.58-3.77-.24-.01-.43-.06-.55-.08,0,0,.03,0,.08,0-.08,0-.16,0-.24-.02-12.95-2.16-26.58-3.25-40.52-3.25-8.76,0-17.54-.11-26.03-.21-8.43-.1-16.74-.21-24.91-.21ZM740.44,370.66h0s0,0,0,0ZM743.35,370.21h0s0,0,0,0Z" style="fill: #1c3759;"/>
        <g>
          <path d="M251.41,505.64c-65.75-150.82-49.17-312.95,41.36-407.52C335.61,53.38,410.1,7.99,495.45,2.66c30.41-1.9,70.97-4.43,108.15,19.29,10.86,6.93,17.47,11.83,75.72,82.35h0s173.76-2.6,52.27,400.66c0,0,7.74-198.84-84.06-285.47,0,0-30.31,46.12-251.69,73-41.42,5.03-75,16.33-103.73,45.53-48.01,48.8-45.71,125.3-40.69,167.64Z" style="fill: #1c3759;"/>
          <path d="M729.63,516.63l.46-11.75c.02-.5,1.82-50.3-7.6-110.01-8.6-54.53-28.56-128.61-74.82-173.19-3.13,3.55-13.72,13.48-42.39,25.59-58.43,24.68-146.05,39.01-209.27,46.69-46.55,5.65-77.3,19.14-102.84,45.09-35.03,35.6-48.95,93.14-40.27,166.41l1.2,10.09-4.06-9.31c-32.35-74.21-45.51-152.22-38.04-225.6,7.47-73.42,35.02-136.89,79.69-183.55C332.64,54.31,407.65,6.64,495.35,1.16c30.16-1.88,71.46-4.46,109.05,19.52,11.4,7.27,18.85,13.4,75.63,82.12,2.41.07,10.44.58,21.02,4.4,11.45,4.13,28.15,13.1,42.68,32.34,20.27,26.85,31.16,66.19,32.38,116.94,1.56,65.09-12.93,148.83-43.08,248.9l-3.39,11.26ZM523.92,3.02c-10.14,0-19.72.6-28.37,1.14-86.84,5.42-161.13,52.64-201.69,95.01-44.2,46.17-71.48,109.03-78.88,181.78-7.1,69.83,4.61,143.91,33.89,214.86-6.4-69.45,8.1-124.23,42.17-158.85,26.05-26.48,57.34-40.22,104.62-45.96,62.68-7.61,149.59-21.8,207.73-46.17,34.82-14.59,42.82-26.06,42.9-26.18l.99-1.47,1.29,1.21c21.1,19.91,38.67,47.4,52.23,81.69,10.82,27.37,19.12,59.13,24.68,94.39,6.85,43.46,7.79,81.71,7.77,99.67,35.74-121.81,64.49-277.92,8.16-352.7-14.05-18.65-30.16-27.34-41.2-31.35-11.99-4.35-20.75-4.3-20.86-4.29h-.72s-.46-.54-.46-.54c-59.28-71.77-65-75.42-75.37-82.04-26.07-16.63-54.14-20.19-78.87-20.19Z" style="fill: #1c3759;"/>
        </g>
        <path d="M332.67,134.43c-.36-5.9-7.13-11.46-13.5-12.33-13.67-1.88-25.6,17.79-31.29,27.18-9.94,16.38-16.04,36.96-12.19,39.04,3.28,1.77,9.18-11.61,30.27-29,16.38-13.51,27.18-17.17,26.72-24.88Z" style="fill: #fff;"/>
      </g>
    </g>
  </g>
</svg>